  0
SECTION
  2
HEADER
  9
$ACADVER
  1
AC1014
  9
$ACADMAINTVER
 70
     9
  9
$DWGCODEPAGE
  3
ANSI_1252
  9
$INSBASE
 10
0.0
 20
0.0
 30
0.0
  9
$EXTMIN
 10
1.000000000000000E+20
 20
1.000000000000000E+20
 30
1.000000000000000E+20
  9
$EXTMAX
 10
-1.000000000000000E+20
 20
-1.000000000000000E+20
 30
-1.000000000000000E+20
  9
$LIMMIN
 10
0.0
 20
0.0
  9
$LIMMAX
 10
12.0
 20
9.0
  9
$ORTHOMODE
 70
     0
  9
$REGENMODE
 70
     1
  9
$FILLMODE
 70
     1
  9
$QTEXTMODE
 70
     0
  9
$MIRRTEXT
 70
     1
  9
$DRAGMODE
 70
     2
  9
$LTSCALE
 40
1.0
  9
$OSMODE
 70
    37
  9
$ATTMODE
 70
     1
  9
$TEXTSIZE
 40
0.2
  9
$TRACEWID
 40
0.05
  9
$TEXTSTYLE
  7
STANDARD
  9
$CLAYER
  8
0
  9
$CELTYPE
  6
BYLAYER
  9
$CECOLOR
 62
   256
  9
$CELTSCALE
 40
1.0
  9
$DELOBJ
 70
     1
  9
$DISPSILH
 70
     0
  9
$DIMSCALE
 40
1.0
  9
$DIMASZ
 40
0.18
  9
$DIMEXO
 40
0.0625
  9
$DIMDLI
 40
0.38
  9
$DIMRND
 40
0.0
  9
$DIMDLE
 40
0.0
  9
$DIMEXE
 40
0.18
  9
$DIMTP
 40
0.0
  9
$DIMTM
 40
0.0
  9
$DIMTXT
 40
0.18
  9
$DIMCEN
 40
0.09
  9
$DIMTSZ
 40
0.0
  9
$DIMTOL
 70
     0
  9
$DIMLIM
 70
     0
  9
$DIMTIH
 70
     1
  9
$DIMTOH
 70
     1
  9
$DIMSE1
 70
     0
  9
$DIMSE2
 70
     0
  9
$DIMTAD
 70
     0
  9
$DIMZIN
 70
     0
  9
$DIMBLK
  1

  9
$DIMASO
 70
     1
  9
$DIMSHO
 70
     1
  9
$DIMPOST
  1

  9
$DIMAPOST
  1

  9
$DIMALT
 70
     0
  9
$DIMALTD
 70
     2
  9
$DIMALTF
 40
25.4
  9
$DIMLFAC
 40
1.0
  9
$DIMTOFL
 70
     0
  9
$DIMTVP
 40
0.0
  9
$DIMTIX
 70
     0
  9
$DIMSOXD
 70
     0
  9
$DIMSAH
 70
     0
  9
$DIMBLK1
  1

  9
$DIMBLK2
  1

  9
$DIMSTYLE
  2
STANDARD
  9
$DIMCLRD
 70
     0
  9
$DIMCLRE
 70
     0
  9
$DIMCLRT
 70
     0
  9
$DIMTFAC
 40
1.0
  9
$DIMGAP
 40
0.09
  9
$DIMJUST
 70
     0
  9
$DIMSD1
 70
     0
  9
$DIMSD2
 70
     0
  9
$DIMTOLJ
 70
     1
  9
$DIMTZIN
 70
     0
  9
$DIMALTZ
 70
     0
  9
$DIMALTTZ
 70
     0
  9
$DIMFIT
 70
     3
  9
$DIMUPT
 70
     0
  9
$DIMUNIT
 70
     2
  9
$DIMDEC
 70
     4
  9
$DIMTDEC
 70
     4
  9
$DIMALTU
 70
     2
  9
$DIMALTTD
 70
     2
  9
$DIMTXSTY
  7
STANDARD
  9
$DIMAUNIT
 70
     0
  9
$LUNITS
 70
     2
  9
$LUPREC
 70
     4
  9
$SKETCHINC
 40
0.1
  9
$FILLETRAD
 40
0.5
  9
$AUNITS
 70
     0
  9
$AUPREC
 70
     0
  9
$MENU
  1
.
  9
$ELEVATION
 40
0.0
  9
$PELEVATION
 40
0.0
  9
$THICKNESS
 40
0.0
  9
$LIMCHECK
 70
     0
  9
$CHAMFERA
 40
0.0
  9
$CHAMFERB
 40
0.0
  9
$CHAMFERC
 40
0.0
  9
$CHAMFERD
 40
0.0
  9
$SKPOLY
 70
     0
  9
$TDCREATE
 40
2456964.402231713
  9
$TDUPDATE
 40
2456964.402231991
  9
$TDINDWG
 40
0.0000000116
  9
$TDUSRTIMER
 40
0.0000000116
  9
$USRTIMER
 70
     1
  9
$ANGBASE
 50
0.0
  9
$ANGDIR
 70
     0
  9
$PDMODE
 70
     0
  9
$PDSIZE
 40
0.0
  9
$PLINEWID
 40
0.0
  9
$COORDS
 70
     1
  9
$SPLFRAME
 70
     0
  9
$SPLINETYPE
 70
     6
  9
$SPLINESEGS
 70
     8
  9
$ATTDIA
 70
     0
  9
$ATTREQ
 70
     1
  9
$HANDLING
 70
     1
  9
$HANDSEED
  5
267
  9
$SURFTAB1
 70
     6
  9
$SURFTAB2
 70
     6
  9
$SURFTYPE
 70
     6
  9
$SURFU
 70
     6
  9
$SURFV
 70
     6
  9
$UCSNAME
  2

  9
$UCSORG
 10
0.0
 20
0.0
 30
0.0
  9
$UCSXDIR
 10
1.0
 20
0.0
 30
0.0
  9
$UCSYDIR
 10
0.0
 20
1.0
 30
0.0
  9
$PUCSNAME
  2

  9
$PUCSORG
 10
0.0
 20
0.0
 30
0.0
  9
$PUCSXDIR
 10
1.0
 20
0.0
 30
0.0
  9
$PUCSYDIR
 10
0.0
 20
1.0
 30
0.0
  9
$USERI1
 70
     0
  9
$USERI2
 70
     0
  9
$USERI3
 70
     0
  9
$USERI4
 70
     0
  9
$USERI5
 70
     0
  9
$USERR1
 40
0.0
  9
$USERR2
 40
0.0
  9
$USERR3
 40
0.0
  9
$USERR4
 40
0.0
  9
$USERR5
 40
0.0
  9
$WORLDVIEW
 70
     1
  9
$SHADEDGE
 70
     3
  9
$SHADEDIF
 70
    70
  9
$TILEMODE
 70
     1
  9
$MAXACTVP
 70
    64
  9
$PINSBASE
 10
0.0
 20
0.0
 30
0.0
  9
$PLIMCHECK
 70
     0
  9
$PEXTMIN
 10
1.000000000000000E+20
 20
1.000000000000000E+20
 30
1.000000000000000E+20
  9
$PEXTMAX
 10
-1.000000000000000E+20
 20
-1.000000000000000E+20
 30
-1.000000000000000E+20
  9
$PLIMMIN
 10
0.0
 20
0.0
  9
$PLIMMAX
 10
12.0
 20
9.0
  9
$UNITMODE
 70
     0
  9
$VISRETAIN
 70
     1
  9
$PLINEGEN
 70
     0
  9
$PSLTSCALE
 70
     1
  9
$TREEDEPTH
 70
  3020
  9
$PICKSTYLE
 70
     1
  9
$CMLSTYLE
  2
STANDARD
  9
$CMLJUST
 70
     0
  9
$CMLSCALE
 40
1.0
  9
$PROXYGRAPHICS
 70
     1
  9
$MEASUREMENT
 70
     0
  0
ENDSEC
  0
SECTION
  2
CLASSES
  0
CLASS
  1
ACDBDICTIONARYWDFLT
  2
AcDbDictionaryWithDefault
  3
ObjectDBX Classes
 90
        0
280
     0
281
     0
  0
CLASS
  1
VISUALSTYLE
  2
AcDbVisualStyle
  3
ObjectDBX Classes
 90
     4095
280
     0
281
     0
  0
CLASS
  1
MATERIAL
  2
AcDbMaterial
  3
ObjectDBX Classes
 90
     1153
280
     0
281
     0
  0
CLASS
  1
SCALE
  2
AcDbScale
  3
ObjectDBX Classes
 90
     1153
280
     0
281
     0
  0
CLASS
  1
SUN
  2
AcDbSun
  3
SCENEOE
 90
     1153
280
     0
281
     0
  0
CLASS
  1
DICTIONARYVAR
  2
AcDbDictionaryVar
  3
ObjectDBX Classes
 90
        0
280
     0
281
     0
  0
CLASS
  1
XRECORD
  2
AcDbXrecord
  3
ObjectDBX Classes
 90
        0
280
     0
281
     0
  0
CLASS
  1
LWPOLYLINE
  2
AcDbPolyline
  3
ObjectDBX Classes
 90
        0
280
     0
281
     1
  0
CLASS
  1
HATCH
  2
AcDbHatch
  3
ObjectDBX Classes
 90
        0
280
     0
281
     1
  0
CLASS
  1
ACDBPLACEHOLDER
  2
AcDbPlaceHolder
  3
ObjectDBX Classes
 90
        0
280
     0
281
     0
  0
CLASS
  1
LAYOUT
  2
AcDbLayout
  3
ObjectDBX Classes
 90
        0
280
     0
281
     0
  0
ENDSEC
  0
SECTION
  2
TABLES
  0
TABLE
  2
VPORT
  5
8
102
{ACAD_XDICTIONARY
360
25D
102
}
330
0
100
AcDbSymbolTable
 70
     1
  0
VPORT
  5
29
330
8
100
AcDbSymbolTableRecord
100
AcDbViewportTableRecord
  2
*ACTIVE
 70
     0
 10
0.0
 20
0.0
 11
1.0
 21
1.0
 12
0.0
 22
0.0
 13
0.0
 23
0.0
 14
0.5
 24
0.5
 15
0.5
 25
0.5
 16
0.0
 26
0.0
 36
1.0
 17
0.0
 27
0.0
 37
-1000.0
 40
50.35706336608798
 41
2.037433155080214
 42
50.0
 43
117.505827531687
 44
171.5582336498396
 50
0.0
 51
0.0
 71
     0
 72
   100
 73
     1
 74
     3
 75
     0
 76
     0
 77
     0
 78
     0
  0
ENDTAB
  0
TABLE
  2
LTYPE
  5
5
330
0
100
AcDbSymbolTable
 70
     1
  0
LTYPE
  5
14
330
5
100
AcDbSymbolTableRecord
100
AcDbLinetypeTableRecord
  2
BYBLOCK
 70
     0
  3

 72
    65
 73
     0
 40
0.0
  0
LTYPE
  5
15
330
5
100
AcDbSymbolTableRecord
100
AcDbLinetypeTableRecord
  2
BYLAYER
 70
     0
  3

 72
    65
 73
     0
 40
0.0
  0
LTYPE
  5
16
330
5
100
AcDbSymbolTableRecord
100
AcDbLinetypeTableRecord
  2
CONTINUOUS
 70
     0
  3
Solid line
 72
    65
 73
     0
 40
0.0
  0
ENDTAB
  0
TABLE
  2
LAYER
  5
2
330
0
100
AcDbSymbolTable
 70
     3
  0
LAYER
  5
10
330
2
100
AcDbSymbolTableRecord
100
AcDbLayerTableRecord
  2
0
 70
     0
 62
     7
  6
CONTINUOUS
  0
LAYER
  5
6A
330
2
100
AcDbSymbolTableRecord
100
AcDbLayerTableRecord
  2
PROFILEEDGES
 70
     0
 62
     7
  6
CONTINUOUS
  0
LAYER
  5
6B
330
2
100
AcDbSymbolTableRecord
100
AcDbLayerTableRecord
  2
SECTIONCUTEDGES
 70
     0
 62
     7
  6
CONTINUOUS
  0
ENDTAB
  0
TABLE
  2
STYLE
  5
3
330
0
100
AcDbSymbolTable
 70
     1
  0
STYLE
  5
11
330
3
100
AcDbSymbolTableRecord
100
AcDbTextStyleTableRecord
  2
STANDARD
 70
     0
 40
0.0
 41
1.0
 50
0.0
 71
     0
 42
0.2
  3
txt
  4

  0
ENDTAB
  0
TABLE
  2
VIEW
  5
6
330
0
100
AcDbSymbolTable
 70
     0
  0
ENDTAB
  0
TABLE
  2
UCS
  5
7
330
0
100
AcDbSymbolTable
 70
     0
  0
ENDTAB
  0
TABLE
  2
APPID
  5
9
330
0
100
AcDbSymbolTable
 70
     1
  0
APPID
  5
12
330
9
100
AcDbSymbolTableRecord
100
AcDbRegAppTableRecord
  2
ACAD
 70
     0
  0
ENDTAB
  0
TABLE
  2
DIMSTYLE
  5
A
330
0
100
AcDbSymbolTable
 70
     1
  0
DIMSTYLE
105
27
330
A
100
AcDbSymbolTableRecord
100
AcDbDimStyleTableRecord
  2
STANDARD
 70
     0
  3

  4

  5

  6

  7

 40
1.0
 41
0.18
 42
0.0625
 43
0.38
 44
0.18
 45
0.0
 46
0.0
 47
0.0
 48
0.0
140
0.18
141
0.09
142
0.0
143
25.4
144
1.0
145
0.0
146
1.0
147
0.09
 71
     0
 72
     0
 73
     1
 74
     1
 75
     0
 76
     0
 77
     0
 78
     0
170
     0
171
     2
172
     0
173
     0
174
     0
175
     0
176
     0
177
     0
178
     0
270
     2
271
     4
272
     4
273
     2
274
     2
340
11
275
     0
280
     0
281
     0
282
     0
283
     1
284
     0
285
     0
286
     0
287
     3
288
     0
  0
ENDTAB
  0
TABLE
  2
BLOCK_RECORD
  5
1
330
0
100
AcDbSymbolTable
 70
     1
  0
BLOCK_RECORD
  5
1F
330
1
100
AcDbSymbolTableRecord
100
AcDbBlockTableRecord
  2
*MODEL_SPACE
  0
BLOCK_RECORD
  5
1B
330
1
100
AcDbSymbolTableRecord
100
AcDbBlockTableRecord
  2
*PAPER_SPACE
  0
ENDTAB
  0
ENDSEC
  0
SECTION
  2
BLOCKS
  0
BLOCK
  5
20
330
1F
100
AcDbEntity
  8
0
100
AcDbBlockBegin
  2
*MODEL_SPACE
 70
     0
 10
0.0
 20
0.0
 30
0.0
  3
*MODEL_SPACE
  1

  0
ENDBLK
  5
21
330
1F
100
AcDbEntity
  8
0
100
AcDbBlockEnd
  0
BLOCK
  5
1C
330
1B
100
AcDbEntity
 67
     1
  8
0
100
AcDbBlockBegin
  2
*PAPER_SPACE
 70
     0
 10
0.0
 20
0.0
 30
0.0
  3
*PAPER_SPACE
  1

  0
ENDBLK
  5
1D
330
1B
100
AcDbEntity
 67
     1
  8
0
100
AcDbBlockEnd
  0
ENDSEC
  0
SECTION
  2
ENTITIES
  0
LINE
  5
6C
330
1F
100
AcDbEntity
  8
0
100
AcDbLine
 10
11.70521901475837
 20
2.637449121534435
 30
0.0
 11
11.70521901475837
 21
5.564551121534431
 31
0.0
  0
LINE
  5
6D
330
1F
100
AcDbEntity
  8
0
100
AcDbLine
 10
9.265831488755301
 20
22.66872112580517
 30
0.0
 11
9.183513924157777
 21
22.68014495947192
 31
0.0
  0
LINE
  5
6E
330
1F
100
AcDbEntity
  8
0
100
AcDbLine
 10
9.017521017385164
 20
22.68674201044495
 30
0.0
 11
8.93455648232057
 21
22.68188697816614
 31
0.0
  0
LINE
  5
6F
330
1F
100
AcDbEntity
  8
0
100
AcDbLine
 10
8.93455648232057
 20
22.68188697816614
 30
0.0
 11
8.852087114997564
 21
22.6716162006758
 31
0.0
  0
LINE
  5
70
330
1F
100
AcDbEntity
  8
0
100
AcDbLine
 10
8.690042836931774
 20
22.63502633696331
 30
0.0
 11
8.611161824665153
 21
22.60886393415496
 31
0.0
  0
LINE
  5
71
330
1F
100
AcDbEntity
  8
0
100
AcDbLine
 10
9.347225650658597
 20
22.65193792512792
 30
0.0
 11
9.265831488755301
 21
22.66872112580517
 31
0.0
  0
LINE
  5
72
330
1F
100
AcDbEntity
  8
0
100
AcDbLine
 10
9.100625453315262
 20
22.6861605075186
 30
0.0
 11
9.017521017385164
 21
22.68674201044495
 31
0.0
  0
LINE
  5
73
330
1F
100
AcDbEntity
  8
0
100
AcDbLine
 10
8.023077747838393
 20
22.16411406825587
 30
0.0
 11
7.976423894991025
 21
22.09533832084874
 31
0.0
  0
LINE
  5
74
330
1F
100
AcDbEntity
  8
0
100
AcDbLine
 10
8.38710820611304
 20
22.50031524236661
 30
0.0
 11
8.317686327273332
 21
22.45462839354468
 31
0.0
  0
LINE
  5
75
330
1F
100
AcDbEntity
  8
0
100
AcDbLine
 10
7.798632876824366
 20
21.63280209752742
 30
0.0
 11
7.787209043157616
 21
21.5504845329299
 31
0.0
  0
LINE
  5
76
330
1F
100
AcDbEntity
  8
0
100
AcDbLine
 10
7.897090394476714
 20
21.94938160851078
 30
0.0
 11
7.864750465038475
 21
21.87282565262985
 31
0.0
  0
LINE
  5
77
330
1F
100
AcDbEntity
  8
0
100
AcDbLine
 10
7.787209043157616
 20
21.5504845329299
 30
0.0
 11
7.78119349511094
 21
21.46759606208738
 31
0.0
  0
LINE
  5
78
330
1F
100
AcDbEntity
  8
0
100
AcDbLine
 10
7.780611992184594
 20
21.38449162615728
 30
0.0
 11
7.785467024463385
 21
21.30152709109268
 31
0.0
  0
LINE
  5
79
330
1F
100
AcDbEntity
  8
0
100
AcDbLine
 10
7.976423894991025
 20
22.09533832084874
 30
0.0
 11
7.934368080719387
 21
22.02365851962927
 31
0.0
  0
LINE
  5
7A
330
1F
100
AcDbEntity
  8
0
100
AcDbLine
 10
7.785467024463385
 20
21.30152709109268
 30
0.0
 11
7.795737801953738
 21
21.21905772376968
 31
0.0
  0
LINE
  5
7B
330
1F
100
AcDbEntity
  8
0
100
AcDbLine
 10
7.795737801953738
 20
21.21905772376968
 30
0.0
 11
7.811380343609637
 21
21.13743667068007
 31
0.0
  0
LINE
  5
7C
330
1F
100
AcDbEntity
  8
0
100
AcDbLine
 10
7.811380343609637
 20
21.13743667068007
 30
0.0
 11
7.832327665666228
 21
21.05701344570389
 31
0.0
  0
LINE
  5
7D
330
1F
100
AcDbEntity
  8
0
100
AcDbLine
 10
8.129361619396118
 20
22.291789065131
 30
0.0
 11
8.074129860301165
 21
22.22969125354162
 31
0.0
  0
LINE
  5
7E
330
1F
100
AcDbEntity
  8
0
100
AcDbLine
 10
9.183513924157777
 20
22.68014495947192
 30
0.0
 11
9.100625453315262
 21
22.6861605075186
 31
0.0
  0
LINE
  5
7F
330
1F
100
AcDbEntity
  8
0
100
AcDbLine
 10
7.864750465038475
 20
21.87282565262985
 30
0.0
 11
7.837486776947439
 21
21.79431847634266
 31
0.0
  0
LINE
  5
80
330
1F
100
AcDbEntity
  8
0
100
AcDbLine
 10
8.459369510258853
 20
22.54136386402507
 30
0.0
 11
8.38710820611304
 21
22.50031524236661
 31
0.0
  0
LINE
  5
81
330
1F
100
AcDbEntity
  8
0
100
AcDbLine
 10
8.18853651425147
 20
22.35014159066135
 30
0.0
 11
8.129361619396118
 21
22.291789065131
 31
0.0
  0
LINE
  5
82
330
1F
100
AcDbEntity
  8
0
100
AcDbLine
 10
8.611161824665153
 20
22.60886393415496
 30
0.0
 11
8.534160805712657
 21
22.57759848202022
 31
0.0
  0
LINE
  5
83
330
1F
100
AcDbEntity
  8
0
100
AcDbLine
 10
8.534160805712657
 20
22.57759848202022
 30
0.0
 11
8.459369510258853
 21
22.54136386402507
 31
0.0
  0
LINE
  5
84
330
1F
100
AcDbEntity
  8
0
100
AcDbLine
 10
7.934368080719387
 20
22.02365851962927
 30
0.0
 11
7.897090394476714
 21
21.94938160851078
 31
0.0
  0
LINE
  5
85
330
1F
100
AcDbEntity
  8
0
100
AcDbLine
 10
7.837486776947439
 20
21.79431847634266
 30
0.0
 11
7.815416077501608
 21
21.71419625943071
 31
0.0
  0
LINE
  5
86
330
1F
100
AcDbEntity
  8
0
100
AcDbLine
 10
7.815416077501608
 20
21.71419625943071
 30
0.0
 11
7.798632876824366
 21
21.63280209752742
 31
0.0
  0
LINE
  5
87
330
1F
100
AcDbEntity
  8
0
100
AcDbLine
 10
7.78119349511094
 20
21.46759606208738
 30
0.0
 11
7.780611992184594
 21
21.38449162615728
 31
0.0
  0
LINE
  5
88
330
1F
100
AcDbEntity
  8
0
100
AcDbLine
 10
8.317686327273332
 20
22.45462839354468
 30
0.0
 11
8.251401148882756
 21
22.40449895565992
 31
0.0
  0
LINE
  5
89
330
1F
100
AcDbEntity
  8
0
100
AcDbLine
 10
8.852087114997564
 20
22.6716162006758
 30
0.0
 11
8.770466061907959
 21
22.6559736590199
 31
0.0
  0
LINE
  5
8A
330
1F
100
AcDbEntity
  8
0
100
AcDbLine
 10
8.770466061907959
 20
22.6559736590199
 30
0.0
 11
8.690042836931774
 21
22.63502633696331
 31
0.0
  0
LINE
  5
8B
330
1F
100
AcDbEntity
  8
0
100
AcDbLine
 10
8.251401148882756
 20
22.40449895565992
 30
0.0
 11
8.18853651425147
 21
22.35014159066135
 31
0.0
  0
LINE
  5
8C
330
1F
100
AcDbEntity
  8
0
100
AcDbLine
 10
8.074129860301165
 20
22.22969125354162
 30
0.0
 11
8.023077747838393
 21
22.16411406825587
 31
0.0
  0
LINE
  5
8D
330
1F
100
AcDbEntity
  8
0
100
AcDbLine
 10
9.566222588144768
 20
20.25672612938144
 30
0.0
 11
9.641013883598573
 21
20.29296074737659
 31
0.0
  0
LINE
  5
8E
330
1F
100
AcDbEntity
  8
0
100
AcDbLine
 10
7.967038760262929
 20
20.75407881488515
 30
0.0
 11
8.012725609084853
 21
20.68465693604545
 31
0.0
  0
LINE
  5
8F
330
1F
100
AcDbEntity
  8
0
100
AcDbLine
 10
9.713275187744387
 20
20.33400936903504
 30
0.0
 11
9.782697066584094
 21
20.37969621785697
 31
0.0
  0
LINE
  5
90
330
1F
100
AcDbEntity
  8
0
100
AcDbLine
 10
9.782697066584094
 20
20.37969621785697
 30
0.0
 11
9.848982244974671
 21
20.42982565574173
 31
0.0
  0
LINE
  5
91
330
1F
100
AcDbEntity
  8
0
100
AcDbLine
 10
8.23766274908792
 20
20.44110046907328
 30
0.0
 11
8.303239934373666
 21
20.3900483566105
 31
0.0
  0
LINE
  5
92
330
1F
100
AcDbEntity
  8
0
100
AcDbLine
 10
9.848982244974671
 20
20.42982565574173
 30
0.0
 11
9.911846879605957
 21
20.4841830207403
 31
0.0
  0
LINE
  5
93
330
1F
100
AcDbEntity
  8
0
100
AcDbLine
 10
9.410340556925654
 20
20.19929827443834
 30
0.0
 11
9.48922156919227
 21
20.22546067724668
 31
0.0
  0
LINE
  5
94
330
1F
100
AcDbEntity
  8
0
100
AcDbLine
 10
7.858490068474572
 20
20.97813243343727
 30
0.0
 11
7.889755520609321
 21
20.90113141448477
 31
0.0
  0
LINE
  5
95
330
1F
100
AcDbEntity
  8
0
100
AcDbLine
 10
9.911846879605957
 20
20.4841830207403
 30
0.0
 11
9.971021774461311
 21
20.54253554627065
 31
0.0
  0
LINE
  5
96
330
1F
100
AcDbEntity
  8
0
100
AcDbLine
 10
8.443695483000264
 20
20.30133868949151
 30
0.0
 11
8.517972394118763
 21
20.26406100324883
 31
0.0
  0
LINE
  5
97
330
1F
100
AcDbEntity
  8
0
100
AcDbLine
 10
8.67303552628688
 20
20.20445738571955
 30
0.0
 11
8.753157743198823
 21
20.18238668627372
 31
0.0
  0
LINE
  5
98
330
1F
100
AcDbEntity
  8
0
100
AcDbLine
 10
8.012725609084853
 20
20.68465693604545
 30
0.0
 11
8.062855046969618
 21
20.61837175765487
 31
0.0
  0
LINE
  5
99
330
1F
100
AcDbEntity
  8
0
100
AcDbLine
 10
8.59452834999969
 20
20.23172107381059
 30
0.0
 11
8.67303552628688
 21
20.20445738571955
 31
0.0
  0
LINE
  5
9A
330
1F
100
AcDbEntity
  8
0
100
AcDbLine
 10
7.889755520609321
 20
20.90113141448477
 30
0.0
 11
7.925990138604472
 21
20.82634011903097
 31
0.0
  0
LINE
  5
9B
330
1F
100
AcDbEntity
  8
0
100
AcDbLine
 10
9.329917331949465
 20
20.17835095238175
 30
0.0
 11
9.410340556925654
 21
20.19929827443834
 31
0.0
  0
LINE
  5
9C
330
1F
100
AcDbEntity
  8
0
100
AcDbLine
 10
8.83455190510212
 20
20.16560348559648
 30
0.0
 11
8.916869469699643
 21
20.15417965192972
 31
0.0
  0
LINE
  5
9D
330
1F
100
AcDbEntity
  8
0
100
AcDbLine
 10
8.916869469699643
 20
20.15417965192972
 30
0.0
 11
8.999757940542162
 21
20.14816410388305
 31
0.0
  0
LINE
  5
9E
330
1F
100
AcDbEntity
  8
0
100
AcDbLine
 10
9.48922156919227
 20
20.22546067724668
 30
0.0
 11
9.566222588144768
 21
20.25672612938144
 31
0.0
  0
LINE
  5
9F
330
1F
100
AcDbEntity
  8
0
100
AcDbLine
 10
9.641013883598573
 20
20.29296074737659
 30
0.0
 11
9.713275187744387
 21
20.33400936903504
 31
0.0
  0
LINE
  5
A0
330
1F
100
AcDbEntity
  8
0
100
AcDbLine
 10
8.062855046969618
 20
20.61837175765487
 30
0.0
 11
8.117212411968188
 21
20.55550712302358
 31
0.0
  0
LINE
  5
A1
330
1F
100
AcDbEntity
  8
0
100
AcDbLine
 10
7.925990138604472
 20
20.82634011903097
 30
0.0
 11
7.967038760262929
 21
20.75407881488515
 31
0.0
  0
LINE
  5
A2
330
1F
100
AcDbEntity
  8
0
100
AcDbLine
 10
7.832327665666228
 20
21.05701344570389
 30
0.0
 11
7.858490068474572
 21
20.97813243343727
 31
0.0
  0
LINE
  5
A3
330
1F
100
AcDbEntity
  8
0
100
AcDbLine
 10
8.753157743198823
 20
20.18238668627372
 30
0.0
 11
8.83455190510212
 21
20.16560348559648
 31
0.0
  0
LINE
  5
A4
330
1F
100
AcDbEntity
  8
0
100
AcDbLine
 10
9.08286237647226
 20
20.1475826009567
 30
0.0
 11
9.165826911536854
 21
20.15243763323549
 31
0.0
  0
LINE
  5
A5
330
1F
100
AcDbEntity
  8
0
100
AcDbLine
 10
8.117212411968188
 20
20.55550712302358
 30
0.0
 11
8.175564937498542
 21
20.49633222816822
 31
0.0
  0
LINE
  5
A6
330
1F
100
AcDbEntity
  8
0
100
AcDbLine
 10
8.175564937498542
 20
20.49633222816822
 30
0.0
 11
8.23766274908792
 21
20.44110046907328
 31
0.0
  0
LINE
  5
A7
330
1F
100
AcDbEntity
  8
0
100
AcDbLine
 10
8.372015681780795
 20
20.34339450376314
 30
0.0
 11
8.443695483000264
 21
20.30133868949151
 31
0.0
  0
LINE
  5
A8
330
1F
100
AcDbEntity
  8
0
100
AcDbLine
 10
8.303239934373666
 20
20.3900483566105
 30
0.0
 11
8.372015681780795
 21
20.34339450376314
 31
0.0
  0
LINE
  5
A9
330
1F
100
AcDbEntity
  8
0
100
AcDbLine
 10
8.517972394118763
 20
20.26406100324883
 30
0.0
 11
8.59452834999969
 21
20.23172107381059
 31
0.0
  0
LINE
  5
AA
330
1F
100
AcDbEntity
  8
0
100
AcDbLine
 10
9.165826911536854
 20
20.15243763323549
 30
0.0
 11
9.248296278859858
 21
20.16270841072584
 31
0.0
  0
LINE
  5
AB
330
1F
100
AcDbEntity
  8
0
100
AcDbLine
 10
9.248296278859858
 20
20.16270841072584
 30
0.0
 11
9.329917331949465
 21
20.17835095238175
 31
0.0
  0
LINE
  5
AC
330
1F
100
AcDbEntity
  8
0
100
AcDbLine
 10
8.999757940542162
 20
20.14816410388305
 30
0.0
 11
9.08286237647226
 21
20.1475826009567
 31
0.0
  0
LINE
  5
AD
330
1F
100
AcDbEntity
  8
0
100
AcDbLine
 10
10.30175051703306
 20
21.20152251387425
 30
0.0
 11
10.31317435069981
 21
21.28384007847177
 31
0.0
  0
LINE
  5
AE
330
1F
100
AcDbEntity
  8
0
100
AcDbLine
 10
10.26289661690999
 20
21.04000613505901
 30
0.0
 11
10.28496731635582
 21
21.12012835197095
 31
0.0
  0
LINE
  5
AF
330
1F
100
AcDbEntity
  8
0
100
AcDbLine
 10
10.20329299938071
 20
20.88494300289088
 30
0.0
 11
10.23563292881895
 21
20.96149895877181
 31
0.0
  0
LINE
  5
B0
330
1F
100
AcDbEntity
  8
0
100
AcDbLine
 10
9.971021774461311
 20
20.54253554627065
 30
0.0
 11
10.02625353355626
 21
20.60463335786003
 31
0.0
  0
LINE
  5
B1
330
1F
100
AcDbEntity
  8
0
100
AcDbLine
 10
10.1239594988664
 20
20.73898629055292
 30
0.0
 11
10.16601531313804
 21
20.81066609177239
 31
0.0
  0
LINE
  5
B2
330
1F
100
AcDbEntity
  8
0
100
AcDbLine
 10
10.02625353355626
 20
20.60463335786003
 30
0.0
 11
10.07730564601904
 21
20.6702105431458
 31
0.0
  0
LINE
  5
B3
330
1F
100
AcDbEntity
  8
0
100
AcDbLine
 10
10.23563292881895
 20
20.96149895877181
 30
0.0
 11
10.26289661690999
 21
21.04000613505901
 31
0.0
  0
LINE
  5
B4
330
1F
100
AcDbEntity
  8
0
100
AcDbLine
 10
10.28496731635582
 20
21.12012835197095
 30
0.0
 11
10.30175051703306
 21
21.20152251387425
 31
0.0
  0
LINE
  5
B5
330
1F
100
AcDbEntity
  8
0
100
AcDbLine
 10
10.07730564601904
 20
20.6702105431458
 30
0.0
 11
10.1239594988664
 21
20.73898629055292
 31
0.0
  0
LINE
  5
B6
330
1F
100
AcDbEntity
  8
0
100
AcDbLine
 10
10.16601531313804
 20
20.81066609177239
 30
0.0
 11
10.20329299938071
 21
20.88494300289088
 31
0.0
  0
LINE
  5
B7
330
1F
100
AcDbEntity
  8
0
100
AcDbLine
 10
10.31317435069981
 20
21.28384007847177
 30
0.0
 11
10.31918989874648
 21
21.36672854931428
 31
0.0
  0
LINE
  5
B8
330
1F
100
AcDbEntity
  8
0
100
AcDbLine
 10
10.30464559190368
 20
21.61526688763197
 30
0.0
 11
10.28900305024778
 21
21.69688794072157
 31
0.0
  0
LINE
  5
B9
330
1F
100
AcDbEntity
  8
0
100
AcDbLine
 10
9.728367712076624
 20
22.49093010763852
 30
0.0
 11
9.656687910857157
 21
22.53298592191015
 31
0.0
  0
LINE
  5
BA
330
1F
100
AcDbEntity
  8
0
100
AcDbLine
 10
9.656687910857157
 20
22.53298592191015
 30
0.0
 11
9.582410999738656
 21
22.57026360815283
 31
0.0
  0
LINE
  5
BB
330
1F
100
AcDbEntity
  8
0
100
AcDbLine
 10
10.08765778477257
 20
22.14966767535621
 30
0.0
 11
10.0375283468878
 21
22.21595285374678
 31
0.0
  0
LINE
  5
BC
330
1F
100
AcDbEntity
  8
0
100
AcDbLine
 10
9.582410999738656
 20
22.57026360815283
 30
0.0
 11
9.505855043857727
 21
22.60260353759106
 31
0.0
  0
LINE
  5
BD
330
1F
100
AcDbEntity
  8
0
100
AcDbLine
 10
10.31491636939403
 20
21.53279752030897
 30
0.0
 11
10.30464559190368
 21
21.61526688763197
 31
0.0
  0
LINE
  5
BE
330
1F
100
AcDbEntity
  8
0
100
AcDbLine
 10
10.31977140167283
 20
21.44983298524438
 30
0.0
 11
10.31491636939403
 21
21.53279752030897
 31
0.0
  0
LINE
  5
BF
330
1F
100
AcDbEntity
  8
0
100
AcDbLine
 10
10.26805572819119
 20
21.77731116569777
 30
0.0
 11
10.24189332538285
 21
21.85619217796438
 31
0.0
  0
LINE
  5
C0
330
1F
100
AcDbEntity
  8
0
100
AcDbLine
 10
10.31918989874648
 20
21.36672854931428
 30
0.0
 11
10.31977140167283
 21
21.44983298524438
 31
0.0
  0
LINE
  5
C1
330
1F
100
AcDbEntity
  8
0
100
AcDbLine
 10
10.28900305024778
 20
21.69688794072157
 30
0.0
 11
10.26805572819119
 21
21.77731116569777
 31
0.0
  0
LINE
  5
C2
330
1F
100
AcDbEntity
  8
0
100
AcDbLine
 10
10.24189332538285
 20
21.85619217796438
 30
0.0
 11
10.2106278732481
 21
21.93319319691688
 31
0.0
  0
LINE
  5
C3
330
1F
100
AcDbEntity
  8
0
100
AcDbLine
 10
10.2106278732481
 20
21.93319319691688
 30
0.0
 11
10.17439325525295
 21
22.00798449237069
 31
0.0
  0
LINE
  5
C4
330
1F
100
AcDbEntity
  8
0
100
AcDbLine
 10
10.17439325525295
 20
22.00798449237069
 30
0.0
 11
10.13334463359449
 21
22.08024579651649
 31
0.0
  0
LINE
  5
C5
330
1F
100
AcDbEntity
  8
0
100
AcDbLine
 10
9.924818456358878
 20
22.33799238323342
 30
0.0
 11
9.8627206447695
 21
22.39322414232837
 31
0.0
  0
LINE
  5
C6
330
1F
100
AcDbEntity
  8
0
100
AcDbLine
 10
9.8627206447695
 20
22.39322414232837
 30
0.0
 11
9.797143459483753
 21
22.44427625479115
 31
0.0
  0
LINE
  5
C7
330
1F
100
AcDbEntity
  8
0
100
AcDbLine
 10
10.13334463359449
 20
22.08024579651649
 30
0.0
 11
10.08765778477257
 21
22.14966767535621
 31
0.0
  0
LINE
  5
C8
330
1F
100
AcDbEntity
  8
0
100
AcDbLine
 10
10.0375283468878
 20
22.21595285374678
 30
0.0
 11
9.983170981889232
 21
22.27881748837806
 31
0.0
  0
LINE
  5
C9
330
1F
100
AcDbEntity
  8
0
100
AcDbLine
 10
9.797143459483753
 20
22.44427625479115
 30
0.0
 11
9.728367712076624
 21
22.49093010763852
 31
0.0
  0
LINE
  5
CA
330
1F
100
AcDbEntity
  8
0
100
AcDbLine
 10
9.983170981889232
 20
22.27881748837806
 30
0.0
 11
9.924818456358878
 21
22.33799238323342
 31
0.0
  0
LINE
  5
CB
330
1F
100
AcDbEntity
  8
0
100
AcDbLine
 10
9.505855043857727
 20
22.60260353759106
 30
0.0
 11
9.427347867570543
 21
22.62986722568209
 31
0.0
  0
LINE
  5
CC
330
1F
100
AcDbEntity
  8
0
100
AcDbLine
 10
9.427347867570543
 20
22.62986722568209
 30
0.0
 11
9.347225650658597
 21
22.65193792512792
 31
0.0
  0
LINE
  5
CD
330
1F
100
AcDbEntity
  8
0
100
AcDbLine
 10
7.132041014758359
 20
10.37121012153443
 30
0.0
 11
7.132041014758359
 21
8.730825121534442
 31
0.0
  0
LINE
  5
CE
330
1F
100
AcDbEntity
  8
0
100
AcDbLine
 10
9.892592014758362
 20
14.96455112153443
 30
0.0
 11
9.892592014758362
 21
18.57121012153442
 31
0.0
  0
LINE
  5
CF
330
1F
100
AcDbEntity
  8
0
100
AcDbLine
 10
8.332041014758357
 20
10.37121012153443
 30
0.0
 11
11.09259201475837
 21
10.37121012153443
 31
0.0
  0
LINE
  5
D0
330
1F
100
AcDbEntity
  8
0
100
AcDbLine
 10
9.892592014758362
 20
14.96455112153443
 30
0.0
 11
7.132041014758359
 21
14.96455112153443
 31
0.0
  0
LINE
  5
D1
330
1F
100
AcDbEntity
  8
0
100
AcDbLine
 10
11.09259201475837
 20
14.96455112153443
 30
0.0
 11
11.09259201475837
 21
19.77121012153443
 31
0.0
  0
LINE
  5
D2
330
1F
100
AcDbEntity
  8
0
100
AcDbLine
 10
14.30773001475836
 20
-9.717502878465558
 30
0.0
 11
7.30773001475836
 21
-9.717502878465558
 31
0.0
  0
LINE
  5
D3
330
1F
100
AcDbEntity
  8
0
100
AcDbLine
 10
7.093241985241624
 20
-10.91750287846556
 30
0.0
 11
0.0932419852416356
 21
-10.91750287846556
 31
0.0
  0
LINE
  5
D4
330
1F
100
AcDbEntity
  8
0
100
AcDbLine
 10
0.0932419852416356
 20
-10.91750287846556
 30
0.0
 11
0.0932419852416356
 21
-17.91750287846556
 31
0.0
  0
LINE
  5
D5
330
1F
100
AcDbEntity
  8
0
100
AcDbLine
 10
-1.106758014758368
 20
-19.11750287846555
 30
0.0
 11
3.355732089671024
 21
-19.11750287846555
 31
0.0
  0
LINE
  5
D6
330
1F
100
AcDbEntity
  8
0
100
AcDbLine
 10
8.29324198524164
 20
-19.11750287846555
 30
0.0
 11
8.29324198524164
 21
-15.71960509889178
 31
0.0
  0
LINE
  5
D7
330
1F
100
AcDbEntity
  8
0
100
AcDbLine
 10
-1.106758014758368
 20
-9.717502878465558
 30
0.0
 11
-1.106758014758368
 21
-19.11750287846555
 31
0.0
  0
LINE
  5
D8
330
1F
100
AcDbEntity
  8
0
100
AcDbLine
 10
7.093241985241624
 20
-17.91750287846556
 30
0.0
 11
7.093241985241624
 21
-15.71960509889178
 31
0.0
  0
LINE
  5
D9
330
1F
100
AcDbEntity
  8
0
100
AcDbLine
 10
0.0932419852416356
 20
-17.91750287846556
 30
0.0
 11
3.355732089671024
 21
-17.91750287846556
 31
0.0
  0
LINE
  5
DA
330
1F
100
AcDbEntity
  8
0
100
AcDbLine
 10
11.555732089671
 20
-15.71960509889178
 30
0.0
 11
8.29324198524164
 21
-15.71960509889178
 31
0.0
  0
LINE
  5
DB
330
1F
100
AcDbEntity
  8
0
100
AcDbLine
 10
4.555732089671022
 20
-22.71960509889179
 30
0.0
 11
11.555732089671
 21
-22.71960509889179
 31
0.0
  0
LINE
  5
DC
330
1F
100
AcDbEntity
  8
0
100
AcDbLine
 10
11.555732089671
 20
-22.71960509889179
 30
0.0
 11
11.555732089671
 21
-15.71960509889178
 31
0.0
  0
LINE
  5
DD
330
1F
100
AcDbEntity
  8
0
100
AcDbLine
 10
4.555732089671022
 20
-15.71960509889178
 30
0.0
 11
4.555732089671022
 21
-17.91750287846556
 31
0.0
  0
LINE
  5
DE
330
1F
100
AcDbEntity
  8
0
100
AcDbLine
 10
9.892592014758362
 20
13.76455112153443
 30
0.0
 11
8.332041014758357
 21
13.76455112153443
 31
0.0
  0
LINE
  5
DF
330
1F
100
AcDbEntity
  8
0
100
AcDbLine
 10
8.332041014758357
 20
10.37121012153443
 30
0.0
 11
8.332041014758357
 21
8.730825121534442
 31
0.0
  0
LINE
  5
E0
330
1F
100
AcDbEntity
  8
0
100
AcDbLine
 10
15.33204101475836
 20
6.764551121534429
 30
0.0
 11
15.33204101475836
 21
13.76455112153443
 31
0.0
  0
LINE
  5
E1
330
1F
100
AcDbEntity
  8
0
100
AcDbLine
 10
8.332041014758357
 20
13.76455112153443
 30
0.0
 11
8.332041014758357
 21
11.57121012153443
 31
0.0
  0
LINE
  5
E2
330
1F
100
AcDbEntity
  8
0
100
AcDbLine
 10
16.53204101475837
 20
5.564551121534431
 30
0.0
 11
16.53204101475837
 21
14.96455112153443
 31
0.0
  0
LINE
  5
E3
330
1F
100
AcDbEntity
  8
0
100
AcDbLine
 10
8.332041014758357
 20
6.764551121534429
 30
0.0
 11
10.50521901475836
 21
6.764551121534435
 31
0.0
  0
LINE
  5
E4
330
1F
100
AcDbEntity
  8
0
100
AcDbLine
 10
7.132041014758359
 20
14.96455112153443
 30
0.0
 11
7.132041014758359
 21
11.57121012153443
 31
0.0
  0
LINE
  5
E5
330
1F
100
AcDbEntity
  8
0
100
AcDbLine
 10
16.53204101475837
 20
14.96455112153443
 30
0.0
 11
11.09259201475837
 21
14.96455112153443
 31
0.0
  0
LINE
  5
E6
330
1F
100
AcDbEntity
  8
0
100
AcDbLine
 10
15.33204101475836
 20
13.76455112153443
 30
0.0
 11
11.09259201475837
 21
13.76455112153443
 31
0.0
  0
LINE
  5
E7
330
1F
100
AcDbEntity
  8
0
100
AcDbLine
 10
7.132041014758359
 20
5.564551121534431
 30
0.0
 11
10.50521901475836
 21
5.564551121534437
 31
0.0
  0
LINE
  5
E8
330
1F
100
AcDbEntity
  8
0
100
AcDbLine
 10
7.30773001475836
 20
-2.717502878465562
 30
0.0
 11
7.30773001475836
 21
-9.717502878465558
 31
0.0
  0
LINE
  5
E9
330
1F
100
AcDbEntity
  8
0
100
AcDbLine
 10
3.355732089671024
 20
-23.91960509889179
 30
0.0
 11
12.75573208967102
 21
-23.91960509889179
 31
0.0
  0
LINE
  5
EA
330
1F
100
AcDbEntity
  8
0
100
AcDbLine
 10
3.355732089671024
 20
-14.51960509889178
 30
0.0
 11
3.355732089671024
 21
-17.91750287846556
 31
0.0
  0
LINE
  5
EB
330
1F
100
AcDbEntity
  8
0
100
AcDbLine
 10
12.75573208967102
 20
-14.51960509889178
 30
0.0
 11
8.29324198524164
 21
-14.51960509889178
 31
0.0
  0
LINE
  5
EC
330
1F
100
AcDbEntity
  8
0
100
AcDbLine
 10
15.50773001475837
 20
-10.91750287846556
 30
0.0
 11
15.50773001475837
 21
-6.762550878465562
 31
0.0
  0
LINE
  5
ED
330
1F
100
AcDbEntity
  8
0
100
AcDbLine
 10
14.30773001475836
 20
-9.717502878465558
 30
0.0
 11
14.30773001475836
 21
-6.762550878465562
 31
0.0
  0
LINE
  5
EE
330
1F
100
AcDbEntity
  8
0
100
AcDbLine
 10
15.50773001475837
 20
-1.517502878465559
 30
0.0
 11
10.15961301475836
 21
-1.517502878465559
 31
0.0
  0
LINE
  5
EF
330
1F
100
AcDbEntity
  8
0
100
AcDbLine
 10
10.15961301475836
 20
1.437449121534431
 30
0.0
 11
10.15961301475836
 21
0.5308251215344313
 31
0.0
  0
LINE
  5
F0
330
1F
100
AcDbEntity
  8
0
100
AcDbLine
 10
10.15961301475836
 20
-5.562550878465564
 30
0.0
 11
14.30773001475836
 21
-5.562550878465564
 31
0.0
  0
LINE
  5
F1
330
1F
100
AcDbEntity
  8
0
100
AcDbLine
 10
12.75573208967102
 20
-23.91960509889179
 30
0.0
 11
12.75573208967102
 21
-14.51960509889178
 31
0.0
  0
LINE
  5
F2
330
1F
100
AcDbEntity
  8
0
100
AcDbLine
 10
6.107730014758363
 20
-1.517502878465559
 30
0.0
 11
6.107730014758363
 21
-9.717502878465558
 31
0.0
  0
LINE
  5
F3
330
1F
100
AcDbEntity
  8
0
100
AcDbLine
 10
14.30773001475836
 20
-2.717502878465562
 30
0.0
 11
10.15961301475836
 21
-2.717502878465562
 31
0.0
  0
LINE
  5
F4
330
1F
100
AcDbEntity
  8
0
100
AcDbLine
 10
17.15961301475836
 20
1.437449121534431
 30
0.0
 11
11.70521901475837
 21
1.437449121534431
 31
0.0
  0
LINE
  5
F5
330
1F
100
AcDbEntity
  8
0
100
AcDbLine
 10
11.70521901475837
 20
8.730825121534442
 30
0.0
 11
8.332041014758357
 21
8.730825121534442
 31
0.0
  0
LINE
  5
F6
330
1F
100
AcDbEntity
  8
0
100
AcDbLine
 10
18.35961301475837
 20
-6.762550878465562
 30
0.0
 11
18.35961301475837
 21
2.637449121534435
 31
0.0
  0
LINE
  5
F7
330
1F
100
AcDbEntity
  8
0
100
AcDbLine
 10
2.305219014758362
 20
-0.6691748784655664
 30
0.0
 11
8.959613014758363
 21
-0.6691748784655664
 31
0.0
  0
LINE
  5
F8
330
1F
100
AcDbEntity
  8
0
100
AcDbLine
 10
11.70521901475837
 20
-0.6691748784655664
 30
0.0
 11
11.70521901475837
 21
1.437449121534431
 31
0.0
  0
LINE
  5
F9
330
1F
100
AcDbEntity
  8
0
100
AcDbLine
 10
8.959613014758363
 20
2.637449121534435
 30
0.0
 11
8.959613014758363
 21
0.5308251215344313
 31
0.0
  0
LINE
  5
FA
330
1F
100
AcDbEntity
  8
0
100
AcDbLine
 10
10.50521901475836
 20
7.530825121534439
 30
0.0
 11
8.332041014758357
 21
7.530825121534439
 31
0.0
  0
LINE
  5
FB
330
1F
100
AcDbEntity
  8
0
100
AcDbLine
 10
3.50521901475836
 20
7.530825121534439
 30
0.0
 11
3.50521901475836
 21
0.5308251215344313
 31
0.0
  0
LINE
  5
FC
330
1F
100
AcDbEntity
  8
0
100
AcDbLine
 10
18.35961301475837
 20
2.637449121534435
 30
0.0
 11
11.70521901475837
 21
2.637449121534435
 31
0.0
  0
LINE
  5
FD
330
1F
100
AcDbEntity
  8
0
100
AcDbLine
 10
2.305219014758362
 20
8.730825121534442
 30
0.0
 11
2.305219014758362
 21
-0.6691748784655664
 31
0.0
  0
LINE
  5
FE
330
1F
100
AcDbEntity
  8
0
100
AcDbLine
 10
17.15961301475836
 20
-5.562550878465564
 30
0.0
 11
17.15961301475836
 21
1.437449121534431
 31
0.0
  0
LINE
  5
FF
330
1F
100
AcDbEntity
  8
0
100
AcDbLine
 10
10.50521901475836
 20
0.5308251215344313
 30
0.0
 11
10.50521901475836
 21
1.437449121534431
 31
0.0
  0
LINE
  5
100
330
1F
100
AcDbEntity
  8
0
100
AcDbLine
 10
3.50521901475836
 20
0.5308251215344313
 30
0.0
 11
8.959613014758363
 21
0.5308251215344313
 31
0.0
  0
LINE
  5
101
330
1F
100
AcDbEntity
  8
0
100
AcDbLine
 10
8.959613014758363
 20
-6.762550878465562
 30
0.0
 11
14.30773001475836
 21
-6.762550878465562
 31
0.0
  0
LINE
  5
102
330
1F
100
AcDbEntity
  8
0
100
AcDbLine
 10
11.70521901475837
 20
5.564551121534431
 30
0.0
 11
16.53204101475837
 21
5.564551121534431
 31
0.0
  0
LINE
  5
103
330
1F
100
AcDbEntity
  8
0
100
AcDbLine
 10
7.132041014758359
 20
8.730825121534442
 30
0.0
 11
2.305219014758362
 21
8.730825121534442
 31
0.0
  0
LINE
  5
104
330
1F
100
AcDbEntity
  8
0
100
AcDbLine
 10
8.332041014758357
 20
11.57121012153443
 30
0.0
 11
9.892592014758362
 21
11.57121012153443
 31
0.0
  0
LINE
  5
105
330
1F
100
AcDbEntity
  8
0
100
AcDbLine
 10
1.692592014758362
 20
19.77121012153443
 30
0.0
 11
1.692592014758362
 21
10.37121012153443
 31
0.0
  0
LINE
  5
106
330
1F
100
AcDbEntity
  8
0
100
AcDbLine
 10
11.09259201475837
 20
19.77121012153443
 30
0.0
 11
10.92802946575992
 21
19.77121012153443
 31
0.0
  0
LINE
  5
107
330
1F
100
AcDbEntity
  8
0
100
AcDbLine
 10
9.892592014758362
 20
11.57121012153443
 30
0.0
 11
9.892592014758362
 21
13.76455112153443
 31
0.0
  0
LINE
  5
108
330
1F
100
AcDbEntity
  8
0
100
AcDbLine
 10
9.892592014758362
 20
18.57121012153442
 30
0.0
 11
2.89259201475836
 21
18.57121012153442
 31
0.0
  0
LINE
  5
109
330
1F
100
AcDbEntity
  8
0
100
AcDbLine
 10
1.692592014758362
 20
10.37121012153443
 30
0.0
 11
7.132041014758359
 21
10.37121012153443
 31
0.0
  0
LINE
  5
10A
330
1F
100
AcDbEntity
  8
0
100
AcDbLine
 10
11.09259201475837
 20
10.37121012153443
 30
0.0
 11
11.09259201475837
 21
13.76455112153443
 31
0.0
  0
LINE
  5
10B
330
1F
100
AcDbEntity
  8
0
100
AcDbLine
 10
2.89259201475836
 20
18.57121012153442
 30
0.0
 11
2.89259201475836
 21
11.57121012153443
 31
0.0
  0
LINE
  5
10C
330
1F
100
AcDbEntity
  8
0
100
AcDbLine
 10
2.89259201475836
 20
11.57121012153443
 30
0.0
 11
7.132041014758359
 21
11.57121012153443
 31
0.0
  0
LINE
  5
10D
330
1F
100
AcDbEntity
  8
0
100
AcDbLine
 10
7.172353928097506
 20
19.77121012153443
 30
0.0
 11
1.692592014758362
 21
19.77121012153443
 31
0.0
  0
LINE
  5
10E
330
1F
100
AcDbEntity
  8
0
100
AcDbLine
 10
10.92802946575992
 20
19.77121012153443
 30
0.0
 11
11.03551304579449
 21
19.89377165490531
 31
0.0
  0
LINE
  5
10F
330
1F
100
AcDbEntity
  8
0
100
AcDbLine
 10
10.15961301475836
 20
0.5308251215344313
 30
0.0
 11
10.50521901475836
 21
0.5308251215344313
 31
0.0
  0
LINE
  5
110
330
1F
100
AcDbEntity
  8
0
100
AcDbLine
 10
7.132041014758359
 20
7.530825121534439
 30
0.0
 11
3.50521901475836
 21
7.530825121534439
 31
0.0
  0
LINE
  5
111
330
1F
100
AcDbEntity
  8
0
100
AcDbLine
 10
8.332041014758357
 20
7.530825121534439
 30
0.0
 11
8.332041014758357
 21
6.764551121534429
 31
0.0
  0
LINE
  5
112
330
1F
100
AcDbEntity
  8
0
100
AcDbLine
 10
11.70521901475837
 20
6.764551121534435
 30
0.0
 11
15.33204101475836
 21
6.764551121534429
 31
0.0
  0
LINE
  5
113
330
1F
100
AcDbEntity
  8
0
100
AcDbLine
 10
11.70521901475837
 20
6.764551121534435
 30
0.0
 11
11.70521901475837
 21
8.730825121534442
 31
0.0
  0
LINE
  5
114
330
1F
100
AcDbEntity
  8
0
100
AcDbLine
 10
7.132041014758359
 20
7.530825121534439
 30
0.0
 11
7.132041014758359
 21
5.564551121534431
 31
0.0
  0
LINE
  5
115
330
1F
100
AcDbEntity
  8
0
100
AcDbLine
 10
10.50521901475836
 20
6.764551121534435
 30
0.0
 11
10.50521901475836
 21
7.530825121534439
 31
0.0
  0
LINE
  5
116
330
1F
100
AcDbEntity
  8
0
100
AcDbLine
 10
10.3014130935242
 20
23.58434133612149
 30
0.0
 11
10.00783509432431
 21
23.72911798361034
 31
0.0
  0
LINE
  5
117
330
1F
100
AcDbEntity
  8
0
100
AcDbLine
 10
11.0355130457945
 20
22.94055295649634
 30
0.0
 11
10.81968596552545
 21
23.18665657429757
 31
0.0
  0
LINE
  5
118
330
1F
100
AcDbEntity
  8
0
100
AcDbLine
 10
8.092548299533108
 20
23.72911798361034
 30
0.0
 11
7.798970300333228
 21
23.58434133612149
 31
0.0
  0
LINE
  5
119
330
1F
100
AcDbEntity
  8
0
100
AcDbLine
 10
9.05019169692871
 20
23.91960509889179
 30
0.0
 11
8.723557367884984
 21
23.89819635389193
 31
0.0
  0
LINE
  5
11A
330
1F
100
AcDbEntity
  8
0
100
AcDbLine
 10
11.36214737483822
 20
22.37480570309643
 30
0.0
 11
11.21737072734938
 21
22.66838370229631
 31
0.0
  0
LINE
  5
11B
330
1F
100
AcDbEntity
  8
0
100
AcDbLine
 10
10.00783509432431
 20
23.72911798361034
 30
0.0
 11
9.697871551086083
 21
23.83433642845494
 31
0.0
  0
LINE
  5
11C
330
1F
100
AcDbEntity
  8
0
100
AcDbLine
 10
8.723557367884984
 20
23.89819635389193
 30
0.0
 11
8.40251184277134
 21
23.83433642845494
 31
0.0
  0
LINE
  5
11D
330
1F
100
AcDbEntity
  8
0
100
AcDbLine
 10
9.376826025972438
 20
23.89819635389193
 30
0.0
 11
9.05019169692871
 21
23.91960509889179
 31
0.0
  0
LINE
  5
11E
330
1F
100
AcDbEntity
  8
0
100
AcDbLine
 10
11.46736581968282
 20
22.06484215985819
 30
0.0
 11
11.36214737483822
 21
22.37480570309643
 31
0.0
  0
LINE
  5
11F
330
1F
100
AcDbEntity
  8
0
100
AcDbLine
 10
11.53122574511982
 20
21.74379663474455
 30
0.0
 11
11.46736581968282
 21
22.06484215985819
 31
0.0
  0
LINE
  5
120
330
1F
100
AcDbEntity
  8
0
100
AcDbLine
 10
10.81968596552545
 20
23.18665657429757
 30
0.0
 11
10.57358234772422
 21
23.40248365456661
 31
0.0
  0
LINE
  5
121
330
1F
100
AcDbEntity
  8
0
100
AcDbLine
 10
10.57358234772422
 20
23.40248365456661
 30
0.0
 11
10.3014130935242
 21
23.58434133612149
 31
0.0
  0
LINE
  5
122
330
1F
100
AcDbEntity
  8
0
100
AcDbLine
 10
9.697871551086083
 20
23.83433642845494
 30
0.0
 11
9.376826025972438
 21
23.89819635389193
 31
0.0
  0
LINE
  5
123
330
1F
100
AcDbEntity
  8
0
100
AcDbLine
 10
8.40251184277134
 20
23.83433642845494
 30
0.0
 11
8.092548299533108
 21
23.72911798361034
 31
0.0
  0
LINE
  5
124
330
1F
100
AcDbEntity
  8
0
100
AcDbLine
 10
11.21737072734938
 20
22.66838370229631
 30
0.0
 11
11.0355130457945
 21
22.94055295649634
 31
0.0
  0
LINE
  5
125
330
1F
100
AcDbEntity
  8
0
100
AcDbLine
 10
11.55263449011968
 20
21.41716230570083
 30
0.0
 11
11.53122574511982
 21
21.74379663474455
 31
0.0
  0
LINE
  5
126
330
1F
100
AcDbEntity
  8
0
100
AcDbLine
 10
6.7382360190192
 20
20.45951890830523
 30
0.0
 11
6.883012666508044
 21
20.16594090910534
 31
0.0
  0
LINE
  5
127
330
1F
100
AcDbEntity
  8
0
100
AcDbLine
 10
7.064870348062926
 20
19.89377165490532
 30
0.0
 11
7.172353928097506
 21
19.77121012153443
 31
0.0
  0
LINE
  5
128
330
1F
100
AcDbEntity
  8
0
100
AcDbLine
 10
6.569157648737603
 20
21.74379663474455
 30
0.0
 11
6.547748903737744
 21
21.41716230570083
 31
0.0
  0
LINE
  5
129
330
1F
100
AcDbEntity
  8
0
100
AcDbLine
 10
6.569157648737601
 20
21.09052797665711
 30
0.0
 11
6.633017574174601
 21
20.76948245154346
 31
0.0
  0
LINE
  5
12A
330
1F
100
AcDbEntity
  8
0
100
AcDbLine
 10
7.526801046133205
 20
23.40248365456661
 30
0.0
 11
7.280697428331973
 21
23.18665657429757
 31
0.0
  0
LINE
  5
12B
330
1F
100
AcDbEntity
  8
0
100
AcDbLine
 10
7.06487034806293
 20
22.94055295649634
 30
0.0
 11
6.883012666508047
 21
22.66838370229631
 31
0.0
  0
LINE
  5
12C
330
1F
100
AcDbEntity
  8
0
100
AcDbLine
 10
7.280697428331973
 20
23.18665657429757
 30
0.0
 11
7.06487034806293
 21
22.94055295649634
 31
0.0
  0
LINE
  5
12D
330
1F
100
AcDbEntity
  8
0
100
AcDbLine
 10
6.633017574174601
 20
20.76948245154346
 30
0.0
 11
6.7382360190192
 21
20.45951890830523
 31
0.0
  0
LINE
  5
12E
330
1F
100
AcDbEntity
  8
0
100
AcDbLine
 10
6.547748903737744
 20
21.41716230570083
 30
0.0
 11
6.569157648737601
 21
21.09052797665711
 31
0.0
  0
LINE
  5
12F
330
1F
100
AcDbEntity
  8
0
100
AcDbLine
 10
6.883012666508047
 20
22.66838370229631
 30
0.0
 11
6.738236019019204
 21
22.37480570309643
 31
0.0
  0
LINE
  5
130
330
1F
100
AcDbEntity
  8
0
100
AcDbLine
 10
6.883012666508044
 20
20.16594090910534
 30
0.0
 11
7.064870348062926
 21
19.89377165490532
 31
0.0
  0
LINE
  5
131
330
1F
100
AcDbEntity
  8
0
100
AcDbLine
 10
6.738236019019204
 20
22.37480570309643
 30
0.0
 11
6.633017574174603
 21
22.06484215985821
 31
0.0
  0
LINE
  5
132
330
1F
100
AcDbEntity
  8
0
100
AcDbLine
 10
7.798970300333228
 20
23.58434133612149
 30
0.0
 11
7.526801046133205
 21
23.40248365456661
 31
0.0
  0
LINE
  5
133
330
1F
100
AcDbEntity
  8
0
100
AcDbLine
 10
6.633017574174603
 20
22.06484215985821
 30
0.0
 11
6.569157648737603
 21
21.74379663474455
 31
0.0
  0
LINE
  5
134
330
1F
100
AcDbEntity
  8
0
100
AcDbLine
 10
11.46736581968282
 20
20.76948245154344
 30
0.0
 11
11.53122574511982
 21
21.09052797665709
 31
0.0
  0
LINE
  5
135
330
1F
100
AcDbEntity
  8
0
100
AcDbLine
 10
11.36214737483822
 20
20.45951890830521
 30
0.0
 11
11.46736581968282
 21
20.76948245154344
 31
0.0
  0
LINE
  5
136
330
1F
100
AcDbEntity
  8
0
100
AcDbLine
 10
11.53122574511982
 20
21.09052797665709
 30
0.0
 11
11.55263449011968
 21
21.41716230570083
 31
0.0
  0
LINE
  5
137
330
1F
100
AcDbEntity
  8
0
100
AcDbLine
 10
11.03551304579449
 20
19.89377165490531
 30
0.0
 11
11.21737072734937
 21
20.16594090910533
 31
0.0
  0
LINE
  5
138
330
1F
100
AcDbEntity
  8
0
100
AcDbLine
 10
11.21737072734937
 20
20.16594090910533
 30
0.0
 11
11.36214737483822
 21
20.45951890830521
 31
0.0
  0
LINE
  5
139
330
1F
100
AcDbEntity
  8
0
100
AcDbLine
 10
8.29324198524164
 20
-10.91750287846556
 30
0.0
 11
15.50773001475837
 21
-10.91750287846556
 31
0.0
  0
LINE
  5
13A
330
1F
100
AcDbEntity
  8
0
100
AcDbLine
 10
6.107730014758363
 20
-9.717502878465558
 30
0.0
 11
-1.106758014758368
 21
-9.717502878465558
 31
0.0
  0
LINE
  5
13B
330
1F
100
AcDbEntity
  8
0
100
AcDbLine
 10
3.355732089671024
 20
-19.11750287846555
 30
0.0
 11
3.355732089671024
 21
-23.91960509889179
 31
0.0
  0
LINE
  5
13C
330
1F
100
AcDbEntity
  8
0
100
AcDbLine
 10
7.093241985241624
 20
-15.71960509889178
 30
0.0
 11
4.555732089671022
 21
-15.71960509889178
 31
0.0
  0
LINE
  5
13D
330
1F
100
AcDbEntity
  8
0
100
AcDbLine
 10
4.555732089671022
 20
-19.11750287846555
 30
0.0
 11
4.555732089671022
 21
-22.71960509889179
 31
0.0
  0
LINE
  5
13E
330
1F
100
AcDbEntity
  8
0
100
AcDbLine
 10
7.093241985241624
 20
-14.51960509889178
 30
0.0
 11
3.355732089671024
 21
-14.51960509889178
 31
0.0
  0
LINE
  5
13F
330
1F
100
AcDbEntity
  8
0
100
AcDbLine
 10
8.29324198524164
 20
-14.51960509889178
 30
0.0
 11
8.29324198524164
 21
-10.91750287846556
 31
0.0
  0
LINE
  5
140
330
1F
100
AcDbEntity
  8
0
100
AcDbLine
 10
7.093241985241624
 20
-14.51960509889178
 30
0.0
 11
7.093241985241624
 21
-10.91750287846556
 31
0.0
  0
LINE
  5
141
330
1F
100
AcDbEntity
  8
0
100
AcDbLine
 10
4.555732089671022
 20
-17.91750287846556
 30
0.0
 11
7.093241985241624
 21
-17.91750287846556
 31
0.0
  0
LINE
  5
142
330
1F
100
AcDbEntity
  8
0
100
AcDbLine
 10
4.555732089671022
 20
-19.11750287846555
 30
0.0
 11
8.29324198524164
 21
-19.11750287846555
 31
0.0
  0
LINE
  5
143
330
1F
100
AcDbEntity
  8
0
100
AcDbLine
 10
10.50521901475836
 20
1.437449121534431
 30
0.0
 11
10.15961301475836
 21
1.437449121534431
 31
0.0
  0
LINE
  5
144
330
1F
100
AcDbEntity
  8
0
100
AcDbLine
 10
8.959613014758363
 20
-0.6691748784655664
 30
0.0
 11
8.959613014758363
 21
-1.517502878465559
 31
0.0
  0
LINE
  5
145
330
1F
100
AcDbEntity
  8
0
100
AcDbLine
 10
10.15961301475836
 20
-0.6691748784655664
 30
0.0
 11
10.15961301475836
 21
-1.517502878465559
 31
0.0
  0
LINE
  5
146
330
1F
100
AcDbEntity
  8
0
100
AcDbLine
 10
10.15961301475836
 20
-0.6691748784655664
 30
0.0
 11
11.70521901475837
 21
-0.6691748784655664
 31
0.0
  0
LINE
  5
147
330
1F
100
AcDbEntity
  8
0
100
AcDbLine
 10
10.50521901475836
 20
2.637449121534435
 30
0.0
 11
10.50521901475836
 21
5.564551121534437
 31
0.0
  0
LINE
  5
148
330
1F
100
AcDbEntity
  8
0
100
AcDbLine
 10
10.50521901475836
 20
2.637449121534435
 30
0.0
 11
8.959613014758363
 21
2.637449121534435
 31
0.0
  0
LINE
  5
149
330
1F
100
AcDbEntity
  8
0
100
AcDbLine
 10
15.50773001475837
 20
-5.562550878465564
 30
0.0
 11
17.15961301475836
 21
-5.562550878465564
 31
0.0
  0
LINE
  5
14A
330
1F
100
AcDbEntity
  8
0
100
AcDbLine
 10
14.30773001475836
 20
-5.562550878465564
 30
0.0
 11
14.30773001475836
 21
-2.717502878465562
 31
0.0
  0
LINE
  5
14B
330
1F
100
AcDbEntity
  8
0
100
AcDbLine
 10
15.50773001475837
 20
-5.562550878465564
 30
0.0
 11
15.50773001475837
 21
-1.517502878465559
 31
0.0
  0
LINE
  5
14C
330
1F
100
AcDbEntity
  8
0
100
AcDbLine
 10
8.959613014758363
 20
-1.517502878465559
 30
0.0
 11
6.107730014758363
 21
-1.517502878465559
 31
0.0
  0
LINE
  5
14D
330
1F
100
AcDbEntity
  8
0
100
AcDbLine
 10
8.959613014758363
 20
-2.717502878465562
 30
0.0
 11
8.959613014758363
 21
-6.762550878465562
 31
0.0
  0
LINE
  5
14E
330
1F
100
AcDbEntity
  8
0
100
AcDbLine
 10
8.959613014758363
 20
-2.717502878465562
 30
0.0
 11
7.30773001475836
 21
-2.717502878465562
 31
0.0
  0
LINE
  5
14F
330
1F
100
AcDbEntity
  8
0
100
AcDbLine
 10
10.15961301475836
 20
-2.717502878465562
 30
0.0
 11
10.15961301475836
 21
-5.562550878465564
 31
0.0
  0
LINE
  5
150
330
1F
100
AcDbEntity
  8
0
100
AcDbLine
 10
15.50773001475837
 20
-6.762550878465562
 30
0.0
 11
18.35961301475837
 21
-6.762550878465562
 31
0.0
  0
LINE
  5
151
330
1F
100
AcDbEntity
  8
0
100
AcDbLine
 10
-5.547635985241633
 20
2.637449121534435
 30
0.0
 11
-5.547635985241633
 21
5.564551121534431
 31
0.0
  0
LINE
  5
152
330
1F
100
AcDbEntity
  8
0
100
AcDbLine
 10
-7.987023511244701
 20
22.66872112580517
 30
0.0
 11
-8.069341075842225
 21
22.68014495947192
 31
0.0
  0
LINE
  5
153
330
1F
100
AcDbEntity
  8
0
100
AcDbLine
 10
-8.235333982614838
 20
22.68674201044495
 30
0.0
 11
-8.318298517679434
 21
22.68188697816614
 31
0.0
  0
LINE
  5
154
330
1F
100
AcDbEntity
  8
0
100
AcDbLine
 10
-8.318298517679434
 20
22.68188697816614
 30
0.0
 11
-8.400767885002438
 21
22.6716162006758
 31
0.0
  0
LINE
  5
155
330
1F
100
AcDbEntity
  8
0
100
AcDbLine
 10
-8.56281216306823
 20
22.63502633696331
 30
0.0
 11
-8.64169317533485
 21
22.60886393415496
 31
0.0
  0
LINE
  5
156
330
1F
100
AcDbEntity
  8
0
100
AcDbLine
 10
-7.905629349341406
 20
22.65193792512792
 30
0.0
 11
-7.987023511244701
 21
22.66872112580517
 31
0.0
  0
LINE
  5
157
330
1F
100
AcDbEntity
  8
0
100
AcDbLine
 10
-8.152229546684742
 20
22.6861605075186
 30
0.0
 11
-8.235333982614838
 21
22.68674201044495
 31
0.0
  0
LINE
  5
158
330
1F
100
AcDbEntity
  8
0
100
AcDbLine
 10
-9.229777252161611
 20
22.16411406825587
 30
0.0
 11
-9.276431105008978
 21
22.09533832084874
 31
0.0
  0
LINE
  5
159
330
1F
100
AcDbEntity
  8
0
100
AcDbLine
 10
-8.865746793886963
 20
22.50031524236661
 30
0.0
 11
-8.935168672726672
 21
22.45462839354468
 31
0.0
  0
LINE
  5
15A
330
1F
100
AcDbEntity
  8
0
100
AcDbLine
 10
-9.454222123175636
 20
21.63280209752742
 30
0.0
 11
-9.465645956842387
 21
21.5504845329299
 31
0.0
  0
LINE
  5
15B
330
1F
100
AcDbEntity
  8
0
100
AcDbLine
 10
-9.355764605523289
 20
21.94938160851078
 30
0.0
 11
-9.388104534961528
 21
21.87282565262985
 31
0.0
  0
LINE
  5
15C
330
1F
100
AcDbEntity
  8
0
100
AcDbLine
 10
-9.465645956842387
 20
21.5504845329299
 30
0.0
 11
-9.471661504889063
 21
21.46759606208738
 31
0.0
  0
LINE
  5
15D
330
1F
100
AcDbEntity
  8
0
100
AcDbLine
 10
-9.47224300781541
 20
21.38449162615728
 30
0.0
 11
-9.467387975536619
 21
21.30152709109268
 31
0.0
  0
LINE
  5
15E
330
1F
100
AcDbEntity
  8
0
100
AcDbLine
 10
-9.276431105008978
 20
22.09533832084874
 30
0.0
 11
-9.318486919280616
 21
22.02365851962927
 31
0.0
  0
LINE
  5
15F
330
1F
100
AcDbEntity
  8
0
100
AcDbLine
 10
-9.467387975536619
 20
21.30152709109268
 30
0.0
 11
-9.457117198046266
 21
21.21905772376968
 31
0.0
  0
LINE
  5
160
330
1F
100
AcDbEntity
  8
0
100
AcDbLine
 10
-9.457117198046266
 20
21.21905772376968
 30
0.0
 11
-9.441474656390366
 21
21.13743667068007
 31
0.0
  0
LINE
  5
161
330
1F
100
AcDbEntity
  8
0
100
AcDbLine
 10
-9.441474656390366
 20
21.13743667068007
 30
0.0
 11
-9.420527334333775
 21
21.05701344570389
 31
0.0
  0
LINE
  5
162
330
1F
100
AcDbEntity
  8
0
100
AcDbLine
 10
-9.123493380603886
 20
22.291789065131
 30
0.0
 11
-9.178725139698837
 21
22.22969125354162
 31
0.0
  0
LINE
  5
163
330
1F
100
AcDbEntity
  8
0
100
AcDbLine
 10
-8.069341075842225
 20
22.68014495947192
 30
0.0
 11
-8.152229546684742
 21
22.6861605075186
 31
0.0
  0
LINE
  5
164
330
1F
100
AcDbEntity
  8
0
100
AcDbLine
 10
-9.388104534961528
 20
21.87282565262985
 30
0.0
 11
-9.415368223052564
 21
21.79431847634266
 31
0.0
  0
LINE
  5
165
330
1F
100
AcDbEntity
  8
0
100
AcDbLine
 10
-8.793485489741151
 20
22.54136386402507
 30
0.0
 11
-8.865746793886963
 21
22.50031524236661
 31
0.0
  0
LINE
  5
166
330
1F
100
AcDbEntity
  8
0
100
AcDbLine
 10
-9.064318485748531
 20
22.35014159066135
 30
0.0
 11
-9.123493380603886
 21
22.291789065131
 31
0.0
  0
LINE
  5
167
330
1F
100
AcDbEntity
  8
0
100
AcDbLine
 10
-8.64169317533485
 20
22.60886393415496
 30
0.0
 11
-8.718694194287345
 21
22.57759848202022
 31
0.0
  0
LINE
  5
168
330
1F
100
AcDbEntity
  8
0
100
AcDbLine
 10
-8.718694194287345
 20
22.57759848202022
 30
0.0
 11
-8.793485489741151
 21
22.54136386402507
 31
0.0
  0
LINE
  5
169
330
1F
100
AcDbEntity
  8
0
100
AcDbLine
 10
-9.318486919280616
 20
22.02365851962927
 30
0.0
 11
-9.355764605523289
 21
21.94938160851078
 31
0.0
  0
LINE
  5
16A
330
1F
100
AcDbEntity
  8
0
100
AcDbLine
 10
-9.415368223052564
 20
21.79431847634266
 30
0.0
 11
-9.437438922498396
 21
21.71419625943071
 31
0.0
  0
LINE
  5
16B
330
1F
100
AcDbEntity
  8
0
100
AcDbLine
 10
-9.437438922498396
 20
21.71419625943071
 30
0.0
 11
-9.454222123175636
 21
21.63280209752742
 31
0.0
  0
LINE
  5
16C
330
1F
100
AcDbEntity
  8
0
100
AcDbLine
 10
-9.471661504889063
 20
21.46759606208738
 30
0.0
 11
-9.47224300781541
 21
21.38449162615728
 31
0.0
  0
LINE
  5
16D
330
1F
100
AcDbEntity
  8
0
100
AcDbLine
 10
-8.935168672726672
 20
22.45462839354468
 30
0.0
 11
-9.001453851117246
 21
22.40449895565992
 31
0.0
  0
LINE
  5
16E
330
1F
100
AcDbEntity
  8
0
100
AcDbLine
 10
-8.400767885002438
 20
22.6716162006758
 30
0.0
 11
-8.482388938092043
 21
22.6559736590199
 31
0.0
  0
LINE
  5
16F
330
1F
100
AcDbEntity
  8
0
100
AcDbLine
 10
-8.482388938092043
 20
22.6559736590199
 30
0.0
 11
-8.56281216306823
 21
22.63502633696331
 31
0.0
  0
LINE
  5
170
330
1F
100
AcDbEntity
  8
0
100
AcDbLine
 10
-9.001453851117246
 20
22.40449895565992
 30
0.0
 11
-9.064318485748531
 21
22.35014159066135
 31
0.0
  0
LINE
  5
171
330
1F
100
AcDbEntity
  8
0
100
AcDbLine
 10
-9.178725139698837
 20
22.22969125354162
 30
0.0
 11
-9.229777252161611
 21
22.16411406825587
 31
0.0
  0
LINE
  5
172
330
1F
100
AcDbEntity
  8
0
100
AcDbLine
 10
-7.686632411855236
 20
20.25672612938144
 30
0.0
 11
-7.61184111640143
 21
20.29296074737659
 31
0.0
  0
LINE
  5
173
330
1F
100
AcDbEntity
  8
0
100
AcDbLine
 10
-9.285816239737075
 20
20.75407881488515
 30
0.0
 11
-9.240129390915149
 21
20.68465693604545
 31
0.0
  0
LINE
  5
174
330
1F
100
AcDbEntity
  8
0
100
AcDbLine
 10
-7.539579812255616
 20
20.33400936903504
 30
0.0
 11
-7.470157933415909
 21
20.37969621785697
 31
0.0
  0
LINE
  5
175
330
1F
100
AcDbEntity
  8
0
100
AcDbLine
 10
-7.470157933415909
 20
20.37969621785697
 30
0.0
 11
-7.403872755025332
 21
20.42982565574173
 31
0.0
  0
LINE
  5
176
330
1F
100
AcDbEntity
  8
0
100
AcDbLine
 10
-9.015192250912081
 20
20.44110046907328
 30
0.0
 11
-8.949615065626338
 21
20.3900483566105
 31
0.0
  0
LINE
  5
177
330
1F
100
AcDbEntity
  8
0
100
AcDbLine
 10
-7.403872755025332
 20
20.42982565574173
 30
0.0
 11
-7.341008120394046
 21
20.4841830207403
 31
0.0
  0
LINE
  5
178
330
1F
100
AcDbEntity
  8
0
100
AcDbLine
 10
-7.84251444307435
 20
20.19929827443834
 30
0.0
 11
-7.763633430807732
 21
20.22546067724668
 31
0.0
  0
LINE
  5
179
330
1F
100
AcDbEntity
  8
0
100
AcDbLine
 10
-9.39436493152543
 20
20.97813243343727
 30
0.0
 11
-9.363099479390682
 21
20.90113141448477
 31
0.0
  0
LINE
  5
17A
330
1F
100
AcDbEntity
  8
0
100
AcDbLine
 10
-7.341008120394046
 20
20.4841830207403
 30
0.0
 11
-7.281833225538692
 21
20.54253554627065
 31
0.0
  0
LINE
  5
17B
330
1F
100
AcDbEntity
  8
0
100
AcDbLine
 10
-8.80915951699974
 20
20.30133868949151
 30
0.0
 11
-8.73488260588124
 21
20.26406100324883
 31
0.0
  0
LINE
  5
17C
330
1F
100
AcDbEntity
  8
0
100
AcDbLine
 10
-8.579819473713124
 20
20.20445738571955
 30
0.0
 11
-8.499697256801179
 21
20.18238668627372
 31
0.0
  0
LINE
  5
17D
330
1F
100
AcDbEntity
  8
0
100
AcDbLine
 10
-9.240129390915149
 20
20.68465693604545
 30
0.0
 11
-9.189999953030386
 21
20.61837175765487
 31
0.0
  0
LINE
  5
17E
330
1F
100
AcDbEntity
  8
0
100
AcDbLine
 10
-8.658326650000314
 20
20.23172107381059
 30
0.0
 11
-8.579819473713124
 21
20.20445738571955
 31
0.0
  0
LINE
  5
17F
330
1F
100
AcDbEntity
  8
0
100
AcDbLine
 10
-9.363099479390682
 20
20.90113141448477
 30
0.0
 11
-9.326864861395531
 21
20.82634011903097
 31
0.0
  0
LINE
  5
180
330
1F
100
AcDbEntity
  8
0
100
AcDbLine
 10
-7.922937668050538
 20
20.17835095238175
 30
0.0
 11
-7.84251444307435
 21
20.19929827443834
 31
0.0
  0
LINE
  5
181
330
1F
100
AcDbEntity
  8
0
100
AcDbLine
 10
-8.418303094897881
 20
20.16560348559648
 30
0.0
 11
-8.33598553030036
 21
20.15417965192972
 31
0.0
  0
LINE
  5
182
330
1F
100
AcDbEntity
  8
0
100
AcDbLine
 10
-8.33598553030036
 20
20.15417965192972
 30
0.0
 11
-8.25309705945784
 21
20.14816410388305
 31
0.0
  0
LINE
  5
183
330
1F
100
AcDbEntity
  8
0
100
AcDbLine
 10
-7.763633430807732
 20
20.22546067724668
 30
0.0
 11
-7.686632411855236
 21
20.25672612938144
 31
0.0
  0
LINE
  5
184
330
1F
100
AcDbEntity
  8
0
100
AcDbLine
 10
-7.61184111640143
 20
20.29296074737659
 30
0.0
 11
-7.539579812255616
 21
20.33400936903504
 31
0.0
  0
LINE
  5
185
330
1F
100
AcDbEntity
  8
0
100
AcDbLine
 10
-9.189999953030386
 20
20.61837175765487
 30
0.0
 11
-9.135642588031816
 21
20.55550712302358
 31
0.0
  0
LINE
  5
186
330
1F
100
AcDbEntity
  8
0
100
AcDbLine
 10
-9.326864861395531
 20
20.82634011903097
 30
0.0
 11
-9.285816239737075
 21
20.75407881488515
 31
0.0
  0
LINE
  5
187
330
1F
100
AcDbEntity
  8
0
100
AcDbLine
 10
-9.420527334333775
 20
21.05701344570389
 30
0.0
 11
-9.39436493152543
 21
20.97813243343727
 31
0.0
  0
LINE
  5
188
330
1F
100
AcDbEntity
  8
0
100
AcDbLine
 10
-8.499697256801179
 20
20.18238668627372
 30
0.0
 11
-8.418303094897881
 21
20.16560348559648
 31
0.0
  0
LINE
  5
189
330
1F
100
AcDbEntity
  8
0
100
AcDbLine
 10
-8.169992623527744
 20
20.1475826009567
 30
0.0
 11
-8.087028088463148
 21
20.15243763323549
 31
0.0
  0
LINE
  5
18A
330
1F
100
AcDbEntity
  8
0
100
AcDbLine
 10
-9.135642588031816
 20
20.55550712302358
 30
0.0
 11
-9.07729006250146
 21
20.49633222816822
 31
0.0
  0
LINE
  5
18B
330
1F
100
AcDbEntity
  8
0
100
AcDbLine
 10
-9.07729006250146
 20
20.49633222816822
 30
0.0
 11
-9.015192250912081
 21
20.44110046907328
 31
0.0
  0
LINE
  5
18C
330
1F
100
AcDbEntity
  8
0
100
AcDbLine
 10
-8.88083931821921
 20
20.34339450376314
 30
0.0
 11
-8.80915951699974
 21
20.30133868949151
 31
0.0
  0
LINE
  5
18D
330
1F
100
AcDbEntity
  8
0
100
AcDbLine
 10
-8.949615065626338
 20
20.3900483566105
 30
0.0
 11
-8.88083931821921
 21
20.34339450376314
 31
0.0
  0
LINE
  5
18E
330
1F
100
AcDbEntity
  8
0
100
AcDbLine
 10
-8.73488260588124
 20
20.26406100324883
 30
0.0
 11
-8.658326650000314
 21
20.23172107381059
 31
0.0
  0
LINE
  5
18F
330
1F
100
AcDbEntity
  8
0
100
AcDbLine
 10
-8.087028088463148
 20
20.15243763323549
 30
0.0
 11
-8.004558721140146
 21
20.16270841072584
 31
0.0
  0
LINE
  5
190
330
1F
100
AcDbEntity
  8
0
100
AcDbLine
 10
-8.004558721140146
 20
20.16270841072584
 30
0.0
 11
-7.922937668050538
 21
20.17835095238175
 31
0.0
  0
LINE
  5
191
330
1F
100
AcDbEntity
  8
0
100
AcDbLine
 10
-8.25309705945784
 20
20.14816410388305
 30
0.0
 11
-8.169992623527744
 21
20.1475826009567
 31
0.0
  0
LINE
  5
192
330
1F
100
AcDbEntity
  8
0
100
AcDbLine
 10
-6.951104482966945
 20
21.20152251387425
 30
0.0
 11
-6.939680649300198
 21
21.28384007847177
 31
0.0
  0
LINE
  5
193
330
1F
100
AcDbEntity
  8
0
100
AcDbLine
 10
-6.989958383090016
 20
21.04000613505901
 30
0.0
 11
-6.967887683644186
 21
21.12012835197095
 31
0.0
  0
LINE
  5
194
330
1F
100
AcDbEntity
  8
0
100
AcDbLine
 10
-7.049562000619293
 20
20.88494300289088
 30
0.0
 11
-7.017222071181052
 21
20.96149895877181
 31
0.0
  0
LINE
  5
195
330
1F
100
AcDbEntity
  8
0
100
AcDbLine
 10
-7.281833225538692
 20
20.54253554627065
 30
0.0
 11
-7.226601466443741
 21
20.60463335786003
 31
0.0
  0
LINE
  5
196
330
1F
100
AcDbEntity
  8
0
100
AcDbLine
 10
-7.128895501133599
 20
20.73898629055292
 30
0.0
 11
-7.086839686861961
 21
20.81066609177239
 31
0.0
  0
LINE
  5
197
330
1F
100
AcDbEntity
  8
0
100
AcDbLine
 10
-7.226601466443741
 20
20.60463335786003
 30
0.0
 11
-7.175549353980965
 21
20.6702105431458
 31
0.0
  0
LINE
  5
198
330
1F
100
AcDbEntity
  8
0
100
AcDbLine
 10
-7.017222071181052
 20
20.96149895877181
 30
0.0
 11
-6.989958383090016
 21
21.04000613505901
 31
0.0
  0
LINE
  5
199
330
1F
100
AcDbEntity
  8
0
100
AcDbLine
 10
-6.967887683644186
 20
21.12012835197095
 30
0.0
 11
-6.951104482966945
 21
21.20152251387425
 31
0.0
  0
LINE
  5
19A
330
1F
100
AcDbEntity
  8
0
100
AcDbLine
 10
-7.175549353980965
 20
20.6702105431458
 30
0.0
 11
-7.128895501133599
 21
20.73898629055292
 31
0.0
  0
LINE
  5
19B
330
1F
100
AcDbEntity
  8
0
100
AcDbLine
 10
-7.086839686861961
 20
20.81066609177239
 30
0.0
 11
-7.049562000619293
 21
20.88494300289088
 31
0.0
  0
LINE
  5
19C
330
1F
100
AcDbEntity
  8
0
100
AcDbLine
 10
-6.939680649300198
 20
21.28384007847177
 30
0.0
 11
-6.933665101253522
 21
21.36672854931428
 31
0.0
  0
LINE
  5
19D
330
1F
100
AcDbEntity
  8
0
100
AcDbLine
 10
-6.94820940809632
 20
21.61526688763197
 30
0.0
 11
-6.96385194975222
 21
21.69688794072157
 31
0.0
  0
LINE
  5
19E
330
1F
100
AcDbEntity
  8
0
100
AcDbLine
 10
-7.524487287923378
 20
22.49093010763852
 30
0.0
 11
-7.596167089142846
 21
22.53298592191015
 31
0.0
  0
LINE
  5
19F
330
1F
100
AcDbEntity
  8
0
100
AcDbLine
 10
-7.596167089142846
 20
22.53298592191015
 30
0.0
 11
-7.670444000261348
 21
22.57026360815283
 31
0.0
  0
LINE
  5
1A0
330
1F
100
AcDbEntity
  8
0
100
AcDbLine
 10
-7.165197215227438
 20
22.14966767535621
 30
0.0
 11
-7.215326653112201
 21
22.21595285374678
 31
0.0
  0
LINE
  5
1A1
330
1F
100
AcDbEntity
  8
0
100
AcDbLine
 10
-7.670444000261348
 20
22.57026360815283
 30
0.0
 11
-7.746999956142276
 21
22.60260353759106
 31
0.0
  0
LINE
  5
1A2
330
1F
100
AcDbEntity
  8
0
100
AcDbLine
 10
-6.937938630605969
 20
21.53279752030897
 30
0.0
 11
-6.94820940809632
 21
21.61526688763197
 31
0.0
  0
LINE
  5
1A3
330
1F
100
AcDbEntity
  8
0
100
AcDbLine
 10
-6.933083598327176
 20
21.44983298524438
 30
0.0
 11
-6.937938630605969
 21
21.53279752030897
 31
0.0
  0
LINE
  5
1A4
330
1F
100
AcDbEntity
  8
0
100
AcDbLine
 10
-6.984799271808813
 20
21.77731116569777
 30
0.0
 11
-7.010961674617159
 21
21.85619217796438
 31
0.0
  0
LINE
  5
1A5
330
1F
100
AcDbEntity
  8
0
100
AcDbLine
 10
-6.933665101253522
 20
21.36672854931428
 30
0.0
 11
-6.933083598327176
 21
21.44983298524438
 31
0.0
  0
LINE
  5
1A6
330
1F
100
AcDbEntity
  8
0
100
AcDbLine
 10
-6.96385194975222
 20
21.69688794072157
 30
0.0
 11
-6.984799271808813
 21
21.77731116569777
 31
0.0
  0
LINE
  5
1A7
330
1F
100
AcDbEntity
  8
0
100
AcDbLine
 10
-7.010961674617159
 20
21.85619217796438
 30
0.0
 11
-7.042227126751905
 21
21.93319319691688
 31
0.0
  0
LINE
  5
1A8
330
1F
100
AcDbEntity
  8
0
100
AcDbLine
 10
-7.042227126751905
 20
21.93319319691688
 30
0.0
 11
-7.078461744747057
 21
22.00798449237069
 31
0.0
  0
LINE
  5
1A9
330
1F
100
AcDbEntity
  8
0
100
AcDbLine
 10
-7.078461744747057
 20
22.00798449237069
 30
0.0
 11
-7.119510366405513
 21
22.08024579651649
 31
0.0
  0
LINE
  5
1AA
330
1F
100
AcDbEntity
  8
0
100
AcDbLine
 10
-7.328036543641126
 20
22.33799238323342
 30
0.0
 11
-7.390134355230504
 21
22.39322414232837
 31
0.0
  0
LINE
  5
1AB
330
1F
100
AcDbEntity
  8
0
100
AcDbLine
 10
-7.390134355230504
 20
22.39322414232837
 30
0.0
 11
-7.45571154051625
 21
22.44427625479115
 31
0.0
  0
LINE
  5
1AC
330
1F
100
AcDbEntity
  8
0
100
AcDbLine
 10
-7.119510366405513
 20
22.08024579651649
 30
0.0
 11
-7.165197215227438
 21
22.14966767535621
 31
0.0
  0
LINE
  5
1AD
330
1F
100
AcDbEntity
  8
0
100
AcDbLine
 10
-7.215326653112201
 20
22.21595285374678
 30
0.0
 11
-7.26968401811077
 21
22.27881748837806
 31
0.0
  0
LINE
  5
1AE
330
1F
100
AcDbEntity
  8
0
100
AcDbLine
 10
-7.45571154051625
 20
22.44427625479115
 30
0.0
 11
-7.524487287923378
 21
22.49093010763852
 31
0.0
  0
LINE
  5
1AF
330
1F
100
AcDbEntity
  8
0
100
AcDbLine
 10
-7.26968401811077
 20
22.27881748837806
 30
0.0
 11
-7.328036543641126
 21
22.33799238323342
 31
0.0
  0
LINE
  5
1B0
330
1F
100
AcDbEntity
  8
0
100
AcDbLine
 10
-7.746999956142276
 20
22.60260353759106
 30
0.0
 11
-7.825507132429461
 21
22.62986722568209
 31
0.0
  0
LINE
  5
1B1
330
1F
100
AcDbEntity
  8
0
100
AcDbLine
 10
-7.825507132429461
 20
22.62986722568209
 30
0.0
 11
-7.905629349341406
 21
22.65193792512792
 31
0.0
  0
LINE
  5
1B2
330
1F
100
AcDbEntity
  8
0
100
AcDbLine
 10
-10.12081398524164
 20
10.37121012153443
 30
0.0
 11
-10.12081398524164
 21
8.730825121534442
 31
0.0
  0
LINE
  5
1B3
330
1F
100
AcDbEntity
  8
0
100
AcDbLine
 10
-7.360262985241642
 20
14.96455112153443
 30
0.0
 11
-7.360262985241642
 21
18.57121012153442
 31
0.0
  0
LINE
  5
1B4
330
1F
100
AcDbEntity
  8
0
100
AcDbLine
 10
-8.920813985241645
 20
10.37121012153443
 30
0.0
 11
-6.160262985241633
 21
10.37121012153443
 31
0.0
  0
LINE
  5
1B5
330
1F
100
AcDbEntity
  8
0
100
AcDbLine
 10
-7.360262985241642
 20
14.96455112153443
 30
0.0
 11
-10.12081398524164
 21
14.96455112153443
 31
0.0
  0
LINE
  5
1B6
330
1F
100
AcDbEntity
  8
0
100
AcDbLine
 10
-6.160262985241633
 20
14.96455112153443
 30
0.0
 11
-6.160262985241633
 21
19.77121012153443
 31
0.0
  0
LINE
  5
1B7
330
1F
100
AcDbEntity
  8
0
100
AcDbLine
 10
-2.945124985241641
 20
-9.717502878465558
 30
0.0
 11
-9.945124985241643
 21
-9.717502878465558
 31
0.0
  0
LINE
  5
1B8
330
1F
100
AcDbEntity
  8
0
100
AcDbLine
 10
-10.15961301475838
 20
-10.91750287846556
 30
0.0
 11
-17.15961301475837
 21
-10.91750287846556
 31
0.0
  0
LINE
  5
1B9
330
1F
100
AcDbEntity
  8
0
100
AcDbLine
 10
-17.15961301475837
 20
-10.91750287846556
 30
0.0
 11
-17.15961301475837
 21
-17.91750287846556
 31
0.0
  0
LINE
  5
1BA
330
1F
100
AcDbEntity
  8
0
100
AcDbLine
 10
-18.35961301475837
 20
-19.11750287846555
 30
0.0
 11
-13.89712291032898
 21
-19.11750287846555
 31
0.0
  0
LINE
  5
1BB
330
1F
100
AcDbEntity
  8
0
100
AcDbLine
 10
-8.959613014758364
 20
-19.11750287846555
 30
0.0
 11
-8.959613014758364
 21
-15.71960509889178
 31
0.0
  0
LINE
  5
1BC
330
1F
100
AcDbEntity
  8
0
100
AcDbLine
 10
-18.35961301475837
 20
-9.717502878465558
 30
0.0
 11
-18.35961301475837
 21
-19.11750287846555
 31
0.0
  0
LINE
  5
1BD
330
1F
100
AcDbEntity
  8
0
100
AcDbLine
 10
-10.15961301475838
 20
-17.91750287846556
 30
0.0
 11
-10.15961301475838
 21
-15.71960509889178
 31
0.0
  0
LINE
  5
1BE
330
1F
100
AcDbEntity
  8
0
100
AcDbLine
 10
-17.15961301475837
 20
-17.91750287846556
 30
0.0
 11
-13.89712291032898
 21
-17.91750287846556
 31
0.0
  0
LINE
  5
1BF
330
1F
100
AcDbEntity
  8
0
100
AcDbLine
 10
-5.697122910329
 20
-15.71960509889178
 30
0.0
 11
-8.959613014758364
 21
-15.71960509889178
 31
0.0
  0
LINE
  5
1C0
330
1F
100
AcDbEntity
  8
0
100
AcDbLine
 10
-12.69712291032898
 20
-22.71960509889179
 30
0.0
 11
-5.697122910329
 21
-22.71960509889179
 31
0.0
  0
LINE
  5
1C1
330
1F
100
AcDbEntity
  8
0
100
AcDbLine
 10
-5.697122910329
 20
-22.71960509889179
 30
0.0
 11
-5.697122910329
 21
-15.71960509889178
 31
0.0
  0
LINE
  5
1C2
330
1F
100
AcDbEntity
  8
0
100
AcDbLine
 10
-12.69712291032898
 20
-15.71960509889178
 30
0.0
 11
-12.69712291032898
 21
-17.91750287846556
 31
0.0
  0
LINE
  5
1C3
330
1F
100
AcDbEntity
  8
0
100
AcDbLine
 10
-7.360262985241642
 20
13.76455112153443
 30
0.0
 11
-8.920813985241645
 21
13.76455112153443
 31
0.0
  0
LINE
  5
1C4
330
1F
100
AcDbEntity
  8
0
100
AcDbLine
 10
-8.920813985241645
 20
10.37121012153443
 30
0.0
 11
-8.920813985241645
 21
8.730825121534442
 31
0.0
  0
LINE
  5
1C5
330
1F
100
AcDbEntity
  8
0
100
AcDbLine
 10
-1.920813985241645
 20
6.764551121534429
 30
0.0
 11
-1.920813985241645
 21
13.76455112153443
 31
0.0
  0
LINE
  5
1C6
330
1F
100
AcDbEntity
  8
0
100
AcDbLine
 10
-8.920813985241645
 20
13.76455112153443
 30
0.0
 11
-8.920813985241645
 21
11.57121012153443
 31
0.0
  0
LINE
  5
1C7
330
1F
100
AcDbEntity
  8
0
100
AcDbLine
 10
-0.7208139852416359
 20
5.564551121534431
 30
0.0
 11
-0.7208139852416359
 21
14.96455112153443
 31
0.0
  0
LINE
  5
1C8
330
1F
100
AcDbEntity
  8
0
100
AcDbLine
 10
-8.920813985241645
 20
6.764551121534429
 30
0.0
 11
-6.747635985241642
 21
6.764551121534435
 31
0.0
  0
LINE
  5
1C9
330
1F
100
AcDbEntity
  8
0
100
AcDbLine
 10
-10.12081398524164
 20
14.96455112153443
 30
0.0
 11
-10.12081398524164
 21
11.57121012153443
 31
0.0
  0
LINE
  5
1CA
330
1F
100
AcDbEntity
  8
0
100
AcDbLine
 10
-0.7208139852416359
 20
14.96455112153443
 30
0.0
 11
-6.160262985241633
 21
14.96455112153443
 31
0.0
  0
LINE
  5
1CB
330
1F
100
AcDbEntity
  8
0
100
AcDbLine
 10
-1.920813985241645
 20
13.76455112153443
 30
0.0
 11
-6.160262985241633
 21
13.76455112153443
 31
0.0
  0
LINE
  5
1CC
330
1F
100
AcDbEntity
  8
0
100
AcDbLine
 10
-10.12081398524164
 20
5.564551121534431
 30
0.0
 11
-6.747635985241642
 21
5.564551121534437
 31
0.0
  0
LINE
  5
1CD
330
1F
100
AcDbEntity
  8
0
100
AcDbLine
 10
-9.945124985241643
 20
-2.717502878465562
 30
0.0
 11
-9.945124985241643
 21
-9.717502878465558
 31
0.0
  0
LINE
  5
1CE
330
1F
100
AcDbEntity
  8
0
100
AcDbLine
 10
-13.89712291032898
 20
-23.91960509889179
 30
0.0
 11
-4.497122910328986
 21
-23.91960509889179
 31
0.0
  0
LINE
  5
1CF
330
1F
100
AcDbEntity
  8
0
100
AcDbLine
 10
-13.89712291032898
 20
-14.51960509889178
 30
0.0
 11
-13.89712291032898
 21
-17.91750287846556
 31
0.0
  0
LINE
  5
1D0
330
1F
100
AcDbEntity
  8
0
100
AcDbLine
 10
-4.497122910328986
 20
-14.51960509889178
 30
0.0
 11
-8.959613014758364
 21
-14.51960509889178
 31
0.0
  0
LINE
  5
1D1
330
1F
100
AcDbEntity
  8
0
100
AcDbLine
 10
-1.745124985241632
 20
-10.91750287846556
 30
0.0
 11
-1.745124985241632
 21
-6.762550878465562
 31
0.0
  0
LINE
  5
1D2
330
1F
100
AcDbEntity
  8
0
100
AcDbLine
 10
-2.945124985241641
 20
-9.717502878465558
 30
0.0
 11
-2.945124985241641
 21
-6.762550878465562
 31
0.0
  0
LINE
  5
1D3
330
1F
100
AcDbEntity
  8
0
100
AcDbLine
 10
-1.745124985241632
 20
-1.517502878465559
 30
0.0
 11
-7.093241985241643
 21
-1.517502878465559
 31
0.0
  0
LINE
  5
1D4
330
1F
100
AcDbEntity
  8
0
100
AcDbLine
 10
-7.093241985241643
 20
1.437449121534431
 30
0.0
 11
-7.093241985241643
 21
0.5308251215344313
 31
0.0
  0
LINE
  5
1D5
330
1F
100
AcDbEntity
  8
0
100
AcDbLine
 10
-7.093241985241643
 20
-5.562550878465564
 30
0.0
 11
-2.945124985241641
 21
-5.562550878465564
 31
0.0
  0
LINE
  5
1D6
330
1F
100
AcDbEntity
  8
0
100
AcDbLine
 10
-4.497122910328986
 20
-23.91960509889179
 30
0.0
 11
-4.497122910328986
 21
-14.51960509889178
 31
0.0
  0
LINE
  5
1D7
330
1F
100
AcDbEntity
  8
0
100
AcDbLine
 10
-11.14512498524164
 20
-1.517502878465559
 30
0.0
 11
-11.14512498524164
 21
-9.717502878465558
 31
0.0
  0
LINE
  5
1D8
330
1F
100
AcDbEntity
  8
0
100
AcDbLine
 10
-2.945124985241641
 20
-2.717502878465562
 30
0.0
 11
-7.093241985241643
 21
-2.717502878465562
 31
0.0
  0
LINE
  5
1D9
330
1F
100
AcDbEntity
  8
0
100
AcDbLine
 10
-0.0932419852416413
 20
1.437449121534431
 30
0.0
 11
-5.547635985241633
 21
1.437449121534431
 31
0.0
  0
LINE
  5
1DA
330
1F
100
AcDbEntity
  8
0
100
AcDbLine
 10
-5.547635985241633
 20
8.730825121534442
 30
0.0
 11
-8.920813985241645
 21
8.730825121534442
 31
0.0
  0
LINE
  5
1DB
330
1F
100
AcDbEntity
  8
0
100
AcDbLine
 10
1.106758014758368
 20
-6.762550878465562
 30
0.0
 11
1.106758014758368
 21
2.637449121534435
 31
0.0
  0
LINE
  5
1DC
330
1F
100
AcDbEntity
  8
0
100
AcDbLine
 10
-14.94763598524164
 20
-0.6691748784655664
 30
0.0
 11
-8.293241985241641
 21
-0.6691748784655664
 31
0.0
  0
LINE
  5
1DD
330
1F
100
AcDbEntity
  8
0
100
AcDbLine
 10
-5.547635985241633
 20
-0.6691748784655664
 30
0.0
 11
-5.547635985241633
 21
1.437449121534431
 31
0.0
  0
LINE
  5
1DE
330
1F
100
AcDbEntity
  8
0
100
AcDbLine
 10
-8.293241985241641
 20
2.637449121534435
 30
0.0
 11
-8.293241985241641
 21
0.5308251215344313
 31
0.0
  0
LINE
  5
1DF
330
1F
100
AcDbEntity
  8
0
100
AcDbLine
 10
-6.747635985241642
 20
7.530825121534439
 30
0.0
 11
-8.920813985241645
 21
7.530825121534439
 31
0.0
  0
LINE
  5
1E0
330
1F
100
AcDbEntity
  8
0
100
AcDbLine
 10
-13.74763598524164
 20
7.530825121534439
 30
0.0
 11
-13.74763598524164
 21
0.5308251215344313
 31
0.0
  0
LINE
  5
1E1
330
1F
100
AcDbEntity
  8
0
100
AcDbLine
 10
1.106758014758368
 20
2.637449121534435
 30
0.0
 11
-5.547635985241633
 21
2.637449121534435
 31
0.0
  0
LINE
  5
1E2
330
1F
100
AcDbEntity
  8
0
100
AcDbLine
 10
-14.94763598524164
 20
8.730825121534442
 30
0.0
 11
-14.94763598524164
 21
-0.6691748784655664
 31
0.0
  0
LINE
  5
1E3
330
1F
100
AcDbEntity
  8
0
100
AcDbLine
 10
-0.0932419852416413
 20
-5.562550878465564
 30
0.0
 11
-0.0932419852416413
 21
1.437449121534431
 31
0.0
  0
LINE
  5
1E4
330
1F
100
AcDbEntity
  8
0
100
AcDbLine
 10
-6.747635985241642
 20
0.5308251215344313
 30
0.0
 11
-6.747635985241642
 21
1.437449121534431
 31
0.0
  0
LINE
  5
1E5
330
1F
100
AcDbEntity
  8
0
100
AcDbLine
 10
-13.74763598524164
 20
0.5308251215344313
 30
0.0
 11
-8.293241985241641
 21
0.5308251215344313
 31
0.0
  0
LINE
  5
1E6
330
1F
100
AcDbEntity
  8
0
100
AcDbLine
 10
-8.293241985241641
 20
-6.762550878465562
 30
0.0
 11
-2.945124985241641
 21
-6.762550878465562
 31
0.0
  0
LINE
  5
1E7
330
1F
100
AcDbEntity
  8
0
100
AcDbLine
 10
-5.547635985241633
 20
5.564551121534431
 30
0.0
 11
-0.7208139852416359
 21
5.564551121534431
 31
0.0
  0
LINE
  5
1E8
330
1F
100
AcDbEntity
  8
0
100
AcDbLine
 10
-10.12081398524164
 20
8.730825121534442
 30
0.0
 11
-14.94763598524164
 21
8.730825121534442
 31
0.0
  0
LINE
  5
1E9
330
1F
100
AcDbEntity
  8
0
100
AcDbLine
 10
-8.920813985241645
 20
11.57121012153443
 30
0.0
 11
-7.360262985241642
 21
11.57121012153443
 31
0.0
  0
LINE
  5
1EA
330
1F
100
AcDbEntity
  8
0
100
AcDbLine
 10
-15.56026298524164
 20
19.77121012153443
 30
0.0
 11
-15.56026298524164
 21
10.37121012153443
 31
0.0
  0
LINE
  5
1EB
330
1F
100
AcDbEntity
  8
0
100
AcDbLine
 10
-6.160262985241633
 20
19.77121012153443
 30
0.0
 11
-6.324825534240085
 21
19.77121012153443
 31
0.0
  0
LINE
  5
1EC
330
1F
100
AcDbEntity
  8
0
100
AcDbLine
 10
-7.360262985241642
 20
11.57121012153443
 30
0.0
 11
-7.360262985241642
 21
13.76455112153443
 31
0.0
  0
LINE
  5
1ED
330
1F
100
AcDbEntity
  8
0
100
AcDbLine
 10
-7.360262985241642
 20
18.57121012153442
 30
0.0
 11
-14.36026298524164
 21
18.57121012153442
 31
0.0
  0
LINE
  5
1EE
330
1F
100
AcDbEntity
  8
0
100
AcDbLine
 10
-15.56026298524164
 20
10.37121012153443
 30
0.0
 11
-10.12081398524164
 21
10.37121012153443
 31
0.0
  0
LINE
  5
1EF
330
1F
100
AcDbEntity
  8
0
100
AcDbLine
 10
-6.160262985241633
 20
10.37121012153443
 30
0.0
 11
-6.160262985241633
 21
13.76455112153443
 31
0.0
  0
LINE
  5
1F0
330
1F
100
AcDbEntity
  8
0
100
AcDbLine
 10
-14.36026298524164
 20
18.57121012153442
 30
0.0
 11
-14.36026298524164
 21
11.57121012153443
 31
0.0
  0
LINE
  5
1F1
330
1F
100
AcDbEntity
  8
0
100
AcDbLine
 10
-14.36026298524164
 20
11.57121012153443
 30
0.0
 11
-10.12081398524164
 21
11.57121012153443
 31
0.0
  0
LINE
  5
1F2
330
1F
100
AcDbEntity
  8
0
100
AcDbLine
 10
-10.0805010719025
 20
19.77121012153443
 30
0.0
 11
-15.56026298524164
 21
19.77121012153443
 31
0.0
  0
LINE
  5
1F3
330
1F
100
AcDbEntity
  8
0
100
AcDbLine
 10
-6.324825534240085
 20
19.77121012153443
 30
0.0
 11
-6.217341954205515
 21
19.89377165490531
 31
0.0
  0
LINE
  5
1F4
330
1F
100
AcDbEntity
  8
0
100
AcDbLine
 10
-7.093241985241643
 20
0.5308251215344313
 30
0.0
 11
-6.747635985241642
 21
0.5308251215344313
 31
0.0
  0
LINE
  5
1F5
330
1F
100
AcDbEntity
  8
0
100
AcDbLine
 10
-10.12081398524164
 20
7.530825121534439
 30
0.0
 11
-13.74763598524164
 21
7.530825121534439
 31
0.0
  0
LINE
  5
1F6
330
1F
100
AcDbEntity
  8
0
100
AcDbLine
 10
-8.920813985241645
 20
7.530825121534439
 30
0.0
 11
-8.920813985241645
 21
6.764551121534429
 31
0.0
  0
LINE
  5
1F7
330
1F
100
AcDbEntity
  8
0
100
AcDbLine
 10
-5.547635985241633
 20
6.764551121534435
 30
0.0
 11
-1.920813985241645
 21
6.764551121534429
 31
0.0
  0
LINE
  5
1F8
330
1F
100
AcDbEntity
  8
0
100
AcDbLine
 10
-5.547635985241633
 20
6.764551121534435
 30
0.0
 11
-5.547635985241633
 21
8.730825121534442
 31
0.0
  0
LINE
  5
1F9
330
1F
100
AcDbEntity
  8
0
100
AcDbLine
 10
-10.12081398524164
 20
7.530825121534439
 30
0.0
 11
-10.12081398524164
 21
5.564551121534431
 31
0.0
  0
LINE
  5
1FA
330
1F
100
AcDbEntity
  8
0
100
AcDbLine
 10
-6.747635985241642
 20
6.764551121534435
 30
0.0
 11
-6.747635985241642
 21
7.530825121534439
 31
0.0
  0
LINE
  5
1FB
330
1F
100
AcDbEntity
  8
0
100
AcDbLine
 10
-6.951441906475806
 20
23.58434133612149
 30
0.0
 11
-7.245019905675689
 21
23.72911798361034
 31
0.0
  0
LINE
  5
1FC
330
1F
100
AcDbEntity
  8
0
100
AcDbLine
 10
-6.217341954205508
 20
22.94055295649634
 30
0.0
 11
-6.433169034474553
 21
23.18665657429757
 31
0.0
  0
LINE
  5
1FD
330
1F
100
AcDbEntity
  8
0
100
AcDbLine
 10
-9.160306700466894
 20
23.72911798361034
 30
0.0
 11
-9.453884699666775
 21
23.58434133612149
 31
0.0
  0
LINE
  5
1FE
330
1F
100
AcDbEntity
  8
0
100
AcDbLine
 10
-8.202663303071292
 20
23.91960509889179
 30
0.0
 11
-8.529297632115018
 21
23.89819635389193
 31
0.0
  0
LINE
  5
1FF
330
1F
100
AcDbEntity
  8
0
100
AcDbLine
 10
-5.890707625161782
 20
22.37480570309643
 30
0.0
 11
-6.035484272650626
 21
22.66838370229631
 31
0.0
  0
LINE
  5
200
330
1F
100
AcDbEntity
  8
0
100
AcDbLine
 10
-7.245019905675689
 20
23.72911798361034
 30
0.0
 11
-7.55498344891392
 21
23.83433642845494
 31
0.0
  0
LINE
  5
201
330
1F
100
AcDbEntity
  8
0
100
AcDbLine
 10
-8.529297632115018
 20
23.89819635389193
 30
0.0
 11
-8.850343157228663
 21
23.83433642845494
 31
0.0
  0
LINE
  5
202
330
1F
100
AcDbEntity
  8
0
100
AcDbLine
 10
-7.876028974027565
 20
23.89819635389193
 30
0.0
 11
-8.202663303071292
 21
23.91960509889179
 31
0.0
  0
LINE
  5
203
330
1F
100
AcDbEntity
  8
0
100
AcDbLine
 10
-5.785489180317182
 20
22.06484215985819
 30
0.0
 11
-5.890707625161782
 21
22.37480570309643
 31
0.0
  0
LINE
  5
204
330
1F
100
AcDbEntity
  8
0
100
AcDbLine
 10
-5.721629254880181
 20
21.74379663474455
 30
0.0
 11
-5.785489180317182
 21
22.06484215985819
 31
0.0
  0
LINE
  5
205
330
1F
100
AcDbEntity
  8
0
100
AcDbLine
 10
-6.433169034474553
 20
23.18665657429757
 30
0.0
 11
-6.679272652275784
 21
23.40248365456661
 31
0.0
  0
LINE
  5
206
330
1F
100
AcDbEntity
  8
0
100
AcDbLine
 10
-6.679272652275784
 20
23.40248365456661
 30
0.0
 11
-6.951441906475806
 21
23.58434133612149
 31
0.0
  0
LINE
  5
207
330
1F
100
AcDbEntity
  8
0
100
AcDbLine
 10
-7.55498344891392
 20
23.83433642845494
 30
0.0
 11
-7.876028974027565
 21
23.89819635389193
 31
0.0
  0
LINE
  5
208
330
1F
100
AcDbEntity
  8
0
100
AcDbLine
 10
-8.850343157228663
 20
23.83433642845494
 30
0.0
 11
-9.160306700466894
 21
23.72911798361034
 31
0.0
  0
LINE
  5
209
330
1F
100
AcDbEntity
  8
0
100
AcDbLine
 10
-6.035484272650626
 20
22.66838370229631
 30
0.0
 11
-6.217341954205508
 21
22.94055295649634
 31
0.0
  0
LINE
  5
20A
330
1F
100
AcDbEntity
  8
0
100
AcDbLine
 10
-5.700220509880324
 20
21.41716230570083
 30
0.0
 11
-5.721629254880181
 21
21.74379663474455
 31
0.0
  0
LINE
  5
20B
330
1F
100
AcDbEntity
  8
0
100
AcDbLine
 10
-10.5146189809808
 20
20.45951890830523
 30
0.0
 11
-10.36984233349196
 21
20.16594090910534
 31
0.0
  0
LINE
  5
20C
330
1F
100
AcDbEntity
  8
0
100
AcDbLine
 10
-10.18798465193708
 20
19.89377165490532
 30
0.0
 11
-10.0805010719025
 21
19.77121012153443
 31
0.0
  0
LINE
  5
20D
330
1F
100
AcDbEntity
  8
0
100
AcDbLine
 10
-10.6836973512624
 20
21.74379663474455
 30
0.0
 11
-10.70510609626226
 21
21.41716230570083
 31
0.0
  0
LINE
  5
20E
330
1F
100
AcDbEntity
  8
0
100
AcDbLine
 10
-10.6836973512624
 20
21.09052797665711
 30
0.0
 11
-10.6198374258254
 21
20.76948245154346
 31
0.0
  0
LINE
  5
20F
330
1F
100
AcDbEntity
  8
0
100
AcDbLine
 10
-9.7260539538668
 20
23.40248365456661
 30
0.0
 11
-9.97215757166803
 21
23.18665657429757
 31
0.0
  0
LINE
  5
210
330
1F
100
AcDbEntity
  8
0
100
AcDbLine
 10
-10.18798465193707
 20
22.94055295649634
 30
0.0
 11
-10.36984233349196
 21
22.66838370229631
 31
0.0
  0
LINE
  5
211
330
1F
100
AcDbEntity
  8
0
100
AcDbLine
 10
-9.97215757166803
 20
23.18665657429757
 30
0.0
 11
-10.18798465193707
 21
22.94055295649634
 31
0.0
  0
LINE
  5
212
330
1F
100
AcDbEntity
  8
0
100
AcDbLine
 10
-10.6198374258254
 20
20.76948245154346
 30
0.0
 11
-10.5146189809808
 21
20.45951890830523
 31
0.0
  0
LINE
  5
213
330
1F
100
AcDbEntity
  8
0
100
AcDbLine
 10
-10.70510609626226
 20
21.41716230570083
 30
0.0
 11
-10.6836973512624
 21
21.09052797665711
 31
0.0
  0
LINE
  5
214
330
1F
100
AcDbEntity
  8
0
100
AcDbLine
 10
-10.36984233349196
 20
22.66838370229631
 30
0.0
 11
-10.5146189809808
 21
22.37480570309643
 31
0.0
  0
LINE
  5
215
330
1F
100
AcDbEntity
  8
0
100
AcDbLine
 10
-10.36984233349196
 20
20.16594090910534
 30
0.0
 11
-10.18798465193708
 21
19.89377165490532
 31
0.0
  0
LINE
  5
216
330
1F
100
AcDbEntity
  8
0
100
AcDbLine
 10
-10.5146189809808
 20
22.37480570309643
 30
0.0
 11
-10.6198374258254
 21
22.06484215985821
 31
0.0
  0
LINE
  5
217
330
1F
100
AcDbEntity
  8
0
100
AcDbLine
 10
-9.453884699666775
 20
23.58434133612149
 30
0.0
 11
-9.7260539538668
 21
23.40248365456661
 31
0.0
  0
LINE
  5
218
330
1F
100
AcDbEntity
  8
0
100
AcDbLine
 10
-10.6198374258254
 20
22.06484215985821
 30
0.0
 11
-10.6836973512624
 21
21.74379663474455
 31
0.0
  0
LINE
  5
219
330
1F
100
AcDbEntity
  8
0
100
AcDbLine
 10
-5.785489180317184
 20
20.76948245154344
 30
0.0
 11
-5.721629254880183
 21
21.09052797665709
 31
0.0
  0
LINE
  5
21A
330
1F
100
AcDbEntity
  8
0
100
AcDbLine
 10
-5.890707625161785
 20
20.45951890830521
 30
0.0
 11
-5.785489180317184
 21
20.76948245154344
 31
0.0
  0
LINE
  5
21B
330
1F
100
AcDbEntity
  8
0
100
AcDbLine
 10
-5.721629254880183
 20
21.09052797665709
 30
0.0
 11
-5.700220509880324
 21
21.41716230570083
 31
0.0
  0
LINE
  5
21C
330
1F
100
AcDbEntity
  8
0
100
AcDbLine
 10
-6.217341954205515
 20
19.89377165490531
 30
0.0
 11
-6.035484272650629
 21
20.16594090910533
 31
0.0
  0
LINE
  5
21D
330
1F
100
AcDbEntity
  8
0
100
AcDbLine
 10
-6.035484272650629
 20
20.16594090910533
 30
0.0
 11
-5.890707625161785
 21
20.45951890830521
 31
0.0
  0
LINE
  5
21E
330
1F
100
AcDbEntity
  8
0
100
AcDbLine
 10
-8.959613014758364
 20
-10.91750287846556
 30
0.0
 11
-1.745124985241632
 21
-10.91750287846556
 31
0.0
  0
LINE
  5
21F
330
1F
100
AcDbEntity
  8
0
100
AcDbLine
 10
-11.14512498524164
 20
-9.717502878465558
 30
0.0
 11
-18.35961301475837
 21
-9.717502878465558
 31
0.0
  0
LINE
  5
220
330
1F
100
AcDbEntity
  8
0
100
AcDbLine
 10
-13.89712291032898
 20
-19.11750287846555
 30
0.0
 11
-13.89712291032898
 21
-23.91960509889179
 31
0.0
  0
LINE
  5
221
330
1F
100
AcDbEntity
  8
0
100
AcDbLine
 10
-10.15961301475838
 20
-15.71960509889178
 30
0.0
 11
-12.69712291032898
 21
-15.71960509889178
 31
0.0
  0
LINE
  5
222
330
1F
100
AcDbEntity
  8
0
100
AcDbLine
 10
-12.69712291032898
 20
-19.11750287846555
 30
0.0
 11
-12.69712291032898
 21
-22.71960509889179
 31
0.0
  0
LINE
  5
223
330
1F
100
AcDbEntity
  8
0
100
AcDbLine
 10
-10.15961301475838
 20
-14.51960509889178
 30
0.0
 11
-13.89712291032898
 21
-14.51960509889178
 31
0.0
  0
LINE
  5
224
330
1F
100
AcDbEntity
  8
0
100
AcDbLine
 10
-8.959613014758364
 20
-14.51960509889178
 30
0.0
 11
-8.959613014758364
 21
-10.91750287846556
 31
0.0
  0
LINE
  5
225
330
1F
100
AcDbEntity
  8
0
100
AcDbLine
 10
-10.15961301475838
 20
-14.51960509889178
 30
0.0
 11
-10.15961301475838
 21
-10.91750287846556
 31
0.0
  0
LINE
  5
226
330
1F
100
AcDbEntity
  8
0
100
AcDbLine
 10
-12.69712291032898
 20
-17.91750287846556
 30
0.0
 11
-10.15961301475838
 21
-17.91750287846556
 31
0.0
  0
LINE
  5
227
330
1F
100
AcDbEntity
  8
0
100
AcDbLine
 10
-12.69712291032898
 20
-19.11750287846555
 30
0.0
 11
-8.959613014758364
 21
-19.11750287846555
 31
0.0
  0
LINE
  5
228
330
1F
100
AcDbEntity
  8
0
100
AcDbLine
 10
-6.747635985241642
 20
1.437449121534431
 30
0.0
 11
-7.093241985241643
 21
1.437449121534431
 31
0.0
  0
LINE
  5
229
330
1F
100
AcDbEntity
  8
0
100
AcDbLine
 10
-8.293241985241641
 20
-0.6691748784655664
 30
0.0
 11
-8.293241985241641
 21
-1.517502878465559
 31
0.0
  0
LINE
  5
22A
330
1F
100
AcDbEntity
  8
0
100
AcDbLine
 10
-7.093241985241643
 20
-0.6691748784655664
 30
0.0
 11
-7.093241985241643
 21
-1.517502878465559
 31
0.0
  0
LINE
  5
22B
330
1F
100
AcDbEntity
  8
0
100
AcDbLine
 10
-7.093241985241643
 20
-0.6691748784655664
 30
0.0
 11
-5.547635985241633
 21
-0.6691748784655664
 31
0.0
  0
LINE
  5
22C
330
1F
100
AcDbEntity
  8
0
100
AcDbLine
 10
-6.747635985241642
 20
2.637449121534435
 30
0.0
 11
-6.747635985241642
 21
5.564551121534437
 31
0.0
  0
LINE
  5
22D
330
1F
100
AcDbEntity
  8
0
100
AcDbLine
 10
-6.747635985241642
 20
2.637449121534435
 30
0.0
 11
-8.293241985241641
 21
2.637449121534435
 31
0.0
  0
LINE
  5
22E
330
1F
100
AcDbEntity
  8
0
100
AcDbLine
 10
-1.745124985241632
 20
-5.562550878465564
 30
0.0
 11
-0.0932419852416413
 21
-5.562550878465564
 31
0.0
  0
LINE
  5
22F
330
1F
100
AcDbEntity
  8
0
100
AcDbLine
 10
-2.945124985241641
 20
-5.562550878465564
 30
0.0
 11
-2.945124985241641
 21
-2.717502878465562
 31
0.0
  0
LINE
  5
230
330
1F
100
AcDbEntity
  8
0
100
AcDbLine
 10
-1.745124985241632
 20
-5.562550878465564
 30
0.0
 11
-1.745124985241632
 21
-1.517502878465559
 31
0.0
  0
LINE
  5
231
330
1F
100
AcDbEntity
  8
0
100
AcDbLine
 10
-8.293241985241641
 20
-1.517502878465559
 30
0.0
 11
-11.14512498524164
 21
-1.517502878465559
 31
0.0
  0
LINE
  5
232
330
1F
100
AcDbEntity
  8
0
100
AcDbLine
 10
-8.293241985241641
 20
-2.717502878465562
 30
0.0
 11
-8.293241985241641
 21
-6.762550878465562
 31
0.0
  0
LINE
  5
233
330
1F
100
AcDbEntity
  8
0
100
AcDbLine
 10
-8.293241985241641
 20
-2.717502878465562
 30
0.0
 11
-9.945124985241643
 21
-2.717502878465562
 31
0.0
  0
LINE
  5
234
330
1F
100
AcDbEntity
  8
0
100
AcDbLine
 10
-7.093241985241643
 20
-2.717502878465562
 30
0.0
 11
-7.093241985241643
 21
-5.562550878465564
 31
0.0
  0
LINE
  5
235
330
1F
100
AcDbEntity
  8
0
100
AcDbLine
 10
-1.745124985241632
 20
-6.762550878465562
 30
0.0
 11
1.106758014758368
 21
-6.762550878465562
 31
0.0
  0
ENDSEC
  0
SECTION
  2
OBJECTS
  0
DICTIONARY
  5
C
330
0
100
AcDbDictionary
  3
ACAD_GROUP
350
D
  3
ACAD_LAYOUT
350
1A
  3
ACAD_MATERIAL
350
43
  3
ACAD_MLEADERSTYLE
350
258
  3
ACAD_MLINESTYLE
350
17
  3
ACAD_PLOTSETTINGS
350
19
  3
ACAD_SCALELIST
350
47
  3
ACAD_VISUALSTYLE
350
2A
  3
ACDBHEADERROUNDTRIPXREC
350
236
  3
ACDBVARIABLEDICTIONARY
350
256
  0
DICTIONARY
  5
25D
330
8
100
AcDbDictionary
280
     1
  3
ACAD_XREC_ROUNDTRIP
360
25E
  0
DICTIONARY
  5
D
102
{ACAD_REACTORS
330
C
102
}
330
C
100
AcDbDictionary
  0
DICTIONARY
  5
1A
102
{ACAD_REACTORS
330
C
102
}
330
C
100
AcDbDictionary
  0
DICTIONARY
  5
43
102
{ACAD_REACTORS
330
C
102
}
330
C
100
AcDbDictionary
  3
BYBLOCK
350
45
  3
BYLAYER
350
44
  3
GLOBAL
350
46
  0
DICTIONARY
  5
258
102
{ACAD_REACTORS
330
C
102
}
330
C
100
AcDbDictionary
  0
DICTIONARY
  5
17
102
{ACAD_REACTORS
330
C
102
}
330
C
100
AcDbDictionary
  3
STANDARD
350
18
  0
DICTIONARY
  5
19
102
{ACAD_REACTORS
330
C
102
}
330
C
100
AcDbDictionary
  0
DICTIONARY
  5
47
102
{ACAD_REACTORS
330
C
102
}
330
C
100
AcDbDictionary
  3
A0
350
48
  3
A1
350
49
  3
A2
350
4A
  3
A3
350
4B
  3
A4
350
4C
  3
A5
350
4D
  3
A6
350
4E
  3
A7
350
4F
  3
A8
350
50
  3
A9
350
51
  3
B0
350
52
  3
B1
350
53
  3
B2
350
54
  3
B3
350
55
  3
B4
350
56
  3
B5
350
57
  3
B6
350
58
  3
B7
350
59
  3
B8
350
5A
  3
B9
350
5B
  3
C0
350
5C
  3
C1
350
5D
  3
C2
350
5E
  3
C3
350
5F
  3
C4
350
60
  3
C5
350
61
  3
C6
350
62
  3
C7
350
63
  3
C8
350
64
  3
C9
350
65
  3
D0
350
66
  3
D1
350
67
  3
D2
350
68
  0
DICTIONARY
  5
2A
102
{ACAD_REACTORS
330
C
102
}
330
C
100
AcDbDictionary
  3
2DWIREFRAME
350
2F
  3
BASIC
350
32
  3
BRIGHTEN
350
36
  3
COLORCHANGE
350
3A
  3
CONCEPTUAL
350
34
  3
DIM
350
35
  3
EDGECOLOROFF
350
3D
  3
FACEPATTERN
350
39
  3
FLAT
350
2B
  3
FLATWITHEDGES
350
2C
  3
GOURAUD
350
2D
  3
GOURAUDWITHEDGES
350
2E
  3
HIDDEN
350
31
  3
JITTEROFF
350
3B
  3
LINEPATTERN
350
38
  3
OVERHANGOFF
350
3C
  3
REALISTIC
350
33
  3
SHADED
350
42
  3
SHADED_WITH_EDGES
350
41
  3
SHADES_OF_GRAY
350
3E
  3
SKETCHY
350
3F
  3
THICKEN
350
37
  3
WIREFRAME
350
30
  3
X-RAY
350
40
  0
DICTIONARY
  5
236
102
{ACAD_REACTORS
330
C
102
}
330
C
100
AcDbDictionary
  3
CEPSNTYPE
350
23F
  3
DIMSTYLEDATA
350
255
  3
FINGERPRINTGUID
350
240
  3
HYPERLINKBASE
350
239
  3
INSUNITS
350
23E
  3
LAYOUTDICT
350
23B
  3
LWETCUNION
350
23D
  3
PLOTSETDICT
350
23C
  3
PSVPSCALE
350
242
  3
PUCSBASE
350
245
  3
PUCSORGBACK
350
24B
  3
PUCSORGBOTTOM
350
247
  3
PUCSORGFRONT
350
24A
  3
PUCSORGLEFT
350
248
  3
PUCSORGRIGHT
350
249
  3
PUCSORGTOP
350
246
  3
PUCSORTHOREF
350
243
  3
PUCSORTHOVIEW
350
244
  3
STYLESHEET
350
23A
  3
TSTACKALIGN
350
237
  3
TSTACKSIZE
350
238
  3
UCSBASE
350
24E
  3
UCSORGBACK
350
254
  3
UCSORGBOTTOM
350
250
  3
UCSORGFRONT
350
253
  3
UCSORGLEFT
350
251
  3
UCSORGRIGHT
350
252
  3
UCSORGTOP
350
24F
  3
UCSORTHOREF
350
24C
  3
UCSORTHOVIEW
350
24D
  3
VERSIONGUID
350
241
  0
DICTIONARY
  5
256
102
{ACAD_REACTORS
330
C
102
}
330
C
100
AcDbDictionary
  3
CANNOSCALE
350
25F
  3
DIMASSOC
350
25B
  3
HIDETEXT
350
25C
  3
MSLTSCALE
350
260
  0
XRECORD
  5
25E
102
{ACAD_REACTORS
330
25D
102
}
330
25D
100
AcDbXrecord
102
VTR_0.000_0.000_1.000_1.000_GRIDDISPLAY
 70
     3
102
VTR_0.000_0.000_1.000_1.000_GRIDMAJOR
 70
     5
102
VTR_0.000_0.000_1.000_1.000_DEFAULTLIGHTING
280
     1
102
VTR_0.000_0.000_1.000_1.000_DEFAULTLIGHTINGTYPE
 70
     1
102
VTR_0.000_0.000_1.000_1.000_BRIGHTNESS
141
0.0
102
VTR_0.000_0.000_1.000_1.000_CONTRAST
142
0.0
  0
MATERIAL
  5
45
102
{ACAD_REACTORS
330
43
102
}
102
{ACAD_XDICTIONARY
360
263
102
}
330
43
100
AcDbMaterial
  1
BYBLOCK
  0
MATERIAL
  5
44
102
{ACAD_REACTORS
330
43
102
}
102
{ACAD_XDICTIONARY
360
261
102
}
330
43
100
AcDbMaterial
  1
BYLAYER
  0
MATERIAL
  5
46
102
{ACAD_REACTORS
330
43
102
}
102
{ACAD_XDICTIONARY
360
265
102
}
330
43
100
AcDbMaterial
  1
GLOBAL
  0
MLINESTYLE
  5
18
102
{ACAD_REACTORS
330
17
102
}
330
17
100
AcDbMlineStyle
  2
Standard
 70
     0
  3

 62
   256
 51
90.0
 52
90.0
 71
     2
 49
0.5
 62
   256
  6
BYLAYER
 49
-0.5
 62
   256
  6
BYLAYER
  0
ACAD_PROXY_OBJECT
  5
48
102
{ACAD_REACTORS
330
47
102
}
330
47
100
AcDbProxyObject
 90
      499
 91
      503
 93
       41
310
903313A31580
  0
ACAD_PROXY_OBJECT
  5
49
102
{ACAD_REACTORS
330
47
102
}
330
47
100
AcDbProxyObject
 90
      499
 91
      503
 93
      105
310
903313A324000000000000004000
  0
ACAD_PROXY_OBJECT
  5
4A
102
{ACAD_REACTORS
330
47
102
}
330
47
100
AcDbProxyObject
 90
      499
 91
      503
 93
      105
310
903313A344000000000000104000
  0
ACAD_PROXY_OBJECT
  5
4B
102
{ACAD_REACTORS
330
47
102
}
330
47
100
AcDbProxyObject
 90
      499
 91
      503
 93
      105
310
903313A354000000000000144000
  0
ACAD_PROXY_OBJECT
  5
4C
102
{ACAD_REACTORS
330
47
102
}
330
47
100
AcDbProxyObject
 90
      499
 91
      503
 93
      105
310
903313A384000000000000204000
  0
ACAD_PROXY_OBJECT
  5
4D
102
{ACAD_REACTORS
330
47
102
}
330
47
100
AcDbProxyObject
 90
      499
 91
      503
 93
      113
310
904313A31304000000000000244000
  0
ACAD_PROXY_OBJECT
  5
4E
102
{ACAD_REACTORS
330
47
102
}
330
47
100
AcDbProxyObject
 90
      499
 91
      503
 93
      113
310
904313A31364000000000000304000
  0
ACAD_PROXY_OBJECT
  5
4F
102
{ACAD_REACTORS
330
47
102
}
330
47
100
AcDbProxyObject
 90
      499
 91
      503
 93
      113
310
904313A32304000000000000344000
  0
ACAD_PROXY_OBJECT
  5
50
102
{ACAD_REACTORS
330
47
102
}
330
47
100
AcDbProxyObject
 90
      499
 91
      503
 93
      113
310
904313A333040000000000003E4000
  0
ACAD_PROXY_OBJECT
  5
51
102
{ACAD_REACTORS
330
47
102
}
330
47
100
AcDbProxyObject
 90
      499
 91
      503
 93
      113
310
904313A34304000000000000444000
  0
ACAD_PROXY_OBJECT
  5
52
102
{ACAD_REACTORS
330
47
102
}
330
47
100
AcDbProxyObject
 90
      499
 91
      503
 93
      113
310
904313A35304000000000000494000
  0
ACAD_PROXY_OBJECT
  5
53
102
{ACAD_REACTORS
330
47
102
}
330
47
100
AcDbProxyObject
 90
      499
 91
      503
 93
      121
310
905313A3130304000000000000594000
  0
ACAD_PROXY_OBJECT
  5
54
102
{ACAD_REACTORS
330
47
102
}
330
47
100
AcDbProxyObject
 90
      499
 91
      503
 93
      105
310
903323A310000000000000010100
  0
ACAD_PROXY_OBJECT
  5
55
102
{ACAD_REACTORS
330
47
102
}
330
47
100
AcDbProxyObject
 90
      499
 91
      503
 93
      105
310
903343A310000000000000410100
  0
ACAD_PROXY_OBJECT
  5
56
102
{ACAD_REACTORS
330
47
102
}
330
47
100
AcDbProxyObject
 90
      499
 91
      503
 93
      105
310
903383A310000000000000810100
  0
ACAD_PROXY_OBJECT
  5
57
102
{ACAD_REACTORS
330
47
102
}
330
47
100
AcDbProxyObject
 90
      499
 91
      503
 93
      113
310
90431303A310000000000000910100
  0
ACAD_PROXY_OBJECT
  5
58
102
{ACAD_REACTORS
330
47
102
}
330
47
100
AcDbProxyObject
 90
      499
 91
      503
 93
      121
310
9053130303A310000000000001650100
  0
ACAD_PROXY_OBJECT
  5
59
102
{ACAD_REACTORS
330
47
102
}
330
47
100
AcDbProxyObject
 90
      499
 91
      503
 93
      257
310
90E312F31323822203D2031272D3022000000000000200FC000000000000284000
  0
ACAD_PROXY_OBJECT
  5
5A
102
{ACAD_REACTORS
330
47
102
}
330
47
100
AcDbProxyObject
 90
      499
 91
      503
 93
      249
310
90D312F363422203D2031272D3022000000000000240FC000000000000284000
  0
ACAD_PROXY_OBJECT
  5
5B
102
{ACAD_REACTORS
330
47
102
}
330
47
100
AcDbProxyObject
 90
      499
 91
      503
 93
      249
310
90D312F333222203D2031272D3022000000000000280FC000000000000284000
  0
ACAD_PROXY_OBJECT
  5
5C
102
{ACAD_REACTORS
330
47
102
}
330
47
100
AcDbProxyObject
 90
      499
 91
      503
 93
      249
310
90D312F313622203D2031272D30220000000000002C0FC000000000000284000
  0
ACAD_PROXY_OBJECT
  5
5D
102
{ACAD_REACTORS
330
47
102
}
330
47
100
AcDbProxyObject
 90
      499
 91
      503
 93
      249
310
90D332F333222203D2031272D30220000000000002E0FC000000000000284000
  0
ACAD_PROXY_OBJECT
  5
5E
102
{ACAD_REACTORS
330
47
102
}
330
47
100
AcDbProxyObject
 90
      499
 91
      503
 93
      241
310
90C312F3822203D2031272D3022000000000000300FC000000000000284000
  0
ACAD_PROXY_OBJECT
  5
5F
102
{ACAD_REACTORS
330
47
102
}
330
47
100
AcDbProxyObject
 90
      499
 91
      503
 93
      249
310
90D332F313622203D2031272D3022000000000000320FC000000000000284000
  0
ACAD_PROXY_OBJECT
  5
60
102
{ACAD_REACTORS
330
47
102
}
330
47
100
AcDbProxyObject
 90
      499
 91
      503
 93
      241
310
90C312F3422203D2031272D3022000000000000340FC000000000000284000
  0
ACAD_PROXY_OBJECT
  5
61
102
{ACAD_REACTORS
330
47
102
}
330
47
100
AcDbProxyObject
 90
      499
 91
      503
 93
      241
310
90C332F3822203D2031272D3022000000000000360FC000000000000284000
  0
ACAD_PROXY_OBJECT
  5
62
102
{ACAD_REACTORS
330
47
102
}
330
47
100
AcDbProxyObject
 90
      499
 91
      503
 93
      241
310
90C312F3222203D2031272D3022000000000000380FC000000000000284000
  0
ACAD_PROXY_OBJECT
  5
63
102
{ACAD_REACTORS
330
47
102
}
330
47
100
AcDbProxyObject
 90
      499
 91
      503
 93
      241
310
90C332F3422203D2031272D30220000000000003A0FC000000000000284000
  0
ACAD_PROXY_OBJECT
  5
64
102
{ACAD_REACTORS
330
47
102
}
330
47
100
AcDbProxyObject
 90
      499
 91
      503
 93
      161
310
90A3122203D2031272D30224000000000000284000
  0
ACAD_PROXY_OBJECT
  5
65
102
{ACAD_REACTORS
330
47
102
}
330
47
100
AcDbProxyObject
 90
      499
 91
      503
 93
      257
310
90E312D312F3222203D2031272D30220000000000003E0FC000000000000284000
  0
ACAD_PROXY_OBJECT
  5
66
102
{ACAD_REACTORS
330
47
102
}
330
47
100
AcDbProxyObject
 90
      499
 91
      503
 93
      225
310
90A3322203D2031272D302200000000000002100000000000000284000
  0
ACAD_PROXY_OBJECT
  5
67
102
{ACAD_REACTORS
330
47
102
}
330
47
100
AcDbProxyObject
 90
      499
 91
      503
 93
      225
310
90A3622203D2031272D302200000000000006100000000000000284000
  0
ACAD_PROXY_OBJECT
  5
68
102
{ACAD_REACTORS
330
47
102
}
330
47
100
AcDbProxyObject
 90
      499
 91
      503
 93
      249
310
90D31272D3022203D2031272D30220000000000000A100000000000000284000
  0
ACAD_PROXY_OBJECT
  5
2F
102
{ACAD_REACTORS
330
2A
102
}
330
2A
100
AcDbProxyObject
 90
      499
 91
      501
 93
      436
310
42CC9915DA5C99599C985B595049028333333333333E33F0000000000000F90107901411070040501600405405064090741402480A0340
1001
ACAD
1000
AcDbSavedByObjectVersion
1070
     0
  0
ACAD_PROXY_OBJECT
  5
32
102
{ACAD_REACTORS
330
2A
102
}
330
2A
100
AcDbProxyObject
 90
      499
 91
      501
 93
      388
310
4150985CDA58D07406404333333333333E33F0000000000000F90107A41107004050150841D405064090741402480A0350
1001
ACAD
1000
AcDbSavedByObjectVersion
1070
     0
  0
ACAD_PROXY_OBJECT
  5
36
102
{ACAD_REACTORS
330
2A
102
}
330
2A
100
AcDbProxyObject
 90
      499
 91
      501
 93
      428
310
42109C9A59DA1D195B90C409028333333333333E33F0000000000000F9010790141107004050150841D405064090741402480A029950
1001
ACAD
1000
AcDbSavedByObjectVersion
1070
     0
  0
ACAD_PROXY_OBJECT
  5
3A
102
{ACAD_REACTORS
330
2A
102
}
330
2A
100
AcDbProxyObject
 90
      499
 91
      501
 93
      452
310
42D0DBDB1BDC90DA185B99D95104090240C333333333333E33F0000000000000F90108901411070040501508421405064090741402480A0350
1001
ACAD
1000
AcDbSavedByObjectVersion
1070
     0
  0
ACAD_PROXY_OBJECT
  5
34
102
{ACAD_REACTORS
330
2A
102
}
330
2A
100
AcDbProxyObject
 90
      499
 91
      501
 93
      500
310
4290DBDB98D95C1D1D585B10940D028333333333333E33F0000000000000F90107902409070040501000000000018199010841D405064090740C02480A0340
1001
ACAD
1000
AcDbSavedByObjectVersion
1070
     0
  0
ACAD_PROXY_OBJECT
  5
35
102
{ACAD_REACTORS
330
2A
102
}
330
2A
100
AcDbProxyObject
 90
      499
 91
      501
 93
      412
310
40D11A5B50B409028333333333333E33F0000000000000F9010790141107004050150841D405064090741402480A02677FFFFFD0
1001
ACAD
1000
AcDbSavedByObjectVersion
1070
     0
  0
ACAD_PROXY_OBJECT
  5
3D
102
{ACAD_REACTORS
330
2A
102
}
330
2A
100
AcDbProxyObject
 90
      499
 91
      501
 93
      452
310
43115919D950DBDB1BDC93D999916409028333333333333E33F0000000000000F9010790141107004050150841D405064090741402480A0350
1001
ACAD
1000
AcDbSavedByObjectVersion
1070
     0
  0
ACAD_PROXY_OBJECT
  5
39
102
{ACAD_REACTORS
330
2A
102
}
330
2A
100
AcDbProxyObject
 90
      499
 91
      501
 93
      444
310
42D19858D95C185D1D195C9B90F409028333333333333E33F0000000000000F9010790141107004050150841D405064090741402480A0350
1001
ACAD
1000
AcDbSavedByObjectVersion
1070
     0
  0
ACAD_PROXY_OBJECT
  5
2B
102
{ACAD_REACTORS
330
2A
102
}
330
2A
100
AcDbProxyObject
 90
      499
 91
      501
 93
      380
310
41119B185D240901404333333333333E33F0000000000000F9010740A907004050150841D405064090741402480A1B50
1001
ACAD
1000
AcDbSavedByObjectVersion
1070
     0
  0
ACAD_PROXY_OBJECT
  5
2C
102
{ACAD_REACTORS
330
2A
102
}
330
2A
100
AcDbProxyObject
 90
      499
 91
      501
 93
      468
310
43519B185D15DA5D1A115919D95CD0140901404333333333333E33F0000000000000F90107409019070040501600405405064090741402480A1B50
1001
ACAD
1000
AcDbSavedByObjectVersion
1070
     0
  0
ACAD_PROXY_OBJECT
  5
2D
102
{ACAD_REACTORS
330
2A
102
}
330
2A
100
AcDbProxyObject
 90
      499
 91
      501
 93
      404
310
41D1DBDD5C985D5910240902404333333333333E33F0000000000000F9010740A9070040501641D405064090741402480A1B50
1001
ACAD
1000
AcDbSavedByObjectVersion
1070
     0
  0
ACAD_PROXY_OBJECT
  5
2E
102
{ACAD_REACTORS
330
2A
102
}
330
2A
100
AcDbProxyObject
 90
      499
 91
      501
 93
      492
310
4411DBDD5C985D5915DA5D1A115919D95CD0340902404333333333333E33F0000000000000F90107409019070040501600405405064090741402480A1B50
1001
ACAD
1000
AcDbSavedByObjectVersion
1070
     0
  0
ACAD_PROXY_OBJECT
  5
31
102
{ACAD_REACTORS
330
2A
102
}
330
2A
100
AcDbProxyObject
 90
      499
 91
      501
 93
      476
310
41921A5919195B90640502408333333333333E33F0000000000000F901079024090700405020000000000001110200405405064090740C02480A0340
1001
ACAD
1000
AcDbSavedByObjectVersion
1070
     0
  0
ACAD_PROXY_OBJECT
  5
3B
102
{ACAD_REACTORS
330
2A
102
}
330
2A
100
AcDbProxyObject
 90
      499
 91
      501
 93
      428
310
42529A5D1D195C93D999914409028333333333333E33F0000000000000F9010790141107004050150A41D405064090741402480A0350
1001
ACAD
1000
AcDbSavedByObjectVersion
1070
     0
  0
ACAD_PROXY_OBJECT
  5
38
102
{ACAD_REACTORS
330
2A
102
}
330
2A
100
AcDbProxyObject
 90
      499
 91
      501
 93
      444
310
42D31A5B995C185D1D195C9B90E409028333333333333E33F0000000000000F9010790141107004050750841D405064090741402483A0350
1001
ACAD
1000
AcDbSavedByObjectVersion
1070
     0
  0
ACAD_PROXY_OBJECT
  5
3C
102
{ACAD_REACTORS
330
2A
102
}
330
2A
100
AcDbProxyObject
 90
      499
 91
      501
 93
      444
310
42D3DD995C9A185B99D3D999915409028333333333333E33F0000000000000F9010790141107004050150941D405064090741402480A0350
1001
ACAD
1000
AcDbSavedByObjectVersion
1070
     0
  0
ACAD_PROXY_OBJECT
  5
33
102
{ACAD_REACTORS
330
2A
102
}
330
2A
100
AcDbProxyObject
 90
      499
 91
      501
 93
      428
310
425499585B1A5CDD1A58D08409038333333333333E33F0000000000000F9010740A907004050150800405405064090740C02480A1B40
1001
ACAD
1000
AcDbSavedByObjectVersion
1070
     0
  0
ACAD_PROXY_OBJECT
  5
42
102
{ACAD_REACTORS
330
2A
102
}
330
2A
100
AcDbProxyObject
 90
      499
 91
      501
 93
      420
310
4194DA1859195911B40902404333333333333E33F0000000000000F9010740A41107004050150800405405064090840C02480A0B40
1001
ACAD
1000
AcDbSavedByObjectVersion
1070
     0
  0
ACAD_PROXY_OBJECT
  5
41
102
{ACAD_REACTORS
330
2A
102
}
330
2A
100
AcDbProxyObject
 90
      499
 91
      501
 93
      516
310
4454DA18591959081DDA5D1A08195919D95CD1A40902404333333333333E33F0000000000000F901074090142907004050250800405405064090740C02480A0B40
1001
ACAD
1000
AcDbSavedByObjectVersion
1070
     0
  0
ACAD_PROXY_OBJECT
  5
3E
102
{ACAD_REACTORS
330
2A
102
}
330
2A
100
AcDbProxyObject
 90
      499
 91
      501
 93
      532
310
4394DA1859195CC81BD98811DC985E5174090240C333333333333E33F0000000000000F901079024090741D01000000000000111010841D405064090740C02480A0340
1001
ACAD
1000
AcDbSavedByObjectVersion
1070
     0
  0
ACAD_PROXY_OBJECT
  5
3F
102
{ACAD_REACTORS
330
2A
102
}
330
2A
100
AcDbProxyObject
 90
      499
 91
      501
 93
      476
310
41D4DAD95D18DA1E51840502408333333333333E33F0000000000000F901079024090741D01000000000000111010B41D405064090741802480A0340
1001
ACAD
1000
AcDbSavedByObjectVersion
1070
     0
  0
ACAD_PROXY_OBJECT
  5
37
102
{ACAD_REACTORS
330
2A
102
}
330
2A
100
AcDbProxyObject
 90
      499
 91
      501
 93
      412
310
41D51A1A58DAD95B90D409028333333333333E33F0000000000000F9010790141107004050150C41D405064090741402480A0350
1001
ACAD
1000
AcDbSavedByObjectVersion
1070
     0
  0
ACAD_PROXY_OBJECT
  5
30
102
{ACAD_REACTORS
330
2A
102
}
330
2A
100
AcDbProxyObject
 90
      499
 91
      501
 93
      420
310
4255DA5C99599C985B595059028333333333333E33F0000000000000F90107901411070040501600405405064090740C02480A0340
1001
ACAD
1000
AcDbSavedByObjectVersion
1070
     0
  0
ACAD_PROXY_OBJECT
  5
40
102
{ACAD_REACTORS
330
2A
102
}
330
2A
100
AcDbProxyObject
 90
      499
 91
      501
 93
      404
310
41560B54985E51940902404000000000000E03F0000000000000F9010740501907004050150841D405064090740C02480A1B40
1001
ACAD
1000
AcDbSavedByObjectVersion
1070
     0
  0
XRECORD
  5
23F
102
{ACAD_REACTORS
330
236
102
}
330
236
100
AcDbXrecord
 90
        0
  0
XRECORD
  5
255
102
{ACAD_REACTORS
330
236
102
}
330
236
100
AcDbXrecord
1000
DSTYLE
1002
{
1070
   340
340
11
1002
}
  0
XRECORD
  5
240
102
{ACAD_REACTORS
330
236
102
}
330
236
100
AcDbXrecord
  1
{F6569179-1851-4DA4-B2E1-5B66B8550020}
  0
XRECORD
  5
239
102
{ACAD_REACTORS
330
236
102
}
330
236
100
AcDbXrecord
  1

  0
XRECORD
  5
23E
102
{ACAD_REACTORS
330
236
102
}
330
236
100
AcDbXrecord
 90
        1
  0
XRECORD
  5
23B
102
{ACAD_REACTORS
330
236
102
}
330
236
100
AcDbXrecord
340
1A
  0
XRECORD
  5
23D
102
{ACAD_REACTORS
330
236
102
}
330
236
100
AcDbXrecord
 90
    10781
  0
XRECORD
  5
23C
102
{ACAD_REACTORS
330
236
102
}
330
236
100
AcDbXrecord
340
19
  0
XRECORD
  5
242
102
{ACAD_REACTORS
330
236
102
}
330
236
100
AcDbXrecord
 40
0.0
  0
XRECORD
  5
245
102
{ACAD_REACTORS
330
236
102
}
330
236
100
AcDbXrecord
340
0
  0
XRECORD
  5
24B
102
{ACAD_REACTORS
330
236
102
}
330
236
100
AcDbXrecord
 10
0.0
 20
0.0
 30
0.0
  0
XRECORD
  5
247
102
{ACAD_REACTORS
330
236
102
}
330
236
100
AcDbXrecord
 10
0.0
 20
0.0
 30
0.0
  0
XRECORD
  5
24A
102
{ACAD_REACTORS
330
236
102
}
330
236
100
AcDbXrecord
 10
0.0
 20
0.0
 30
0.0
  0
XRECORD
  5
248
102
{ACAD_REACTORS
330
236
102
}
330
236
100
AcDbXrecord
 10
0.0
 20
0.0
 30
0.0
  0
XRECORD
  5
249
102
{ACAD_REACTORS
330
236
102
}
330
236
100
AcDbXrecord
 10
0.0
 20
0.0
 30
0.0
  0
XRECORD
  5
246
102
{ACAD_REACTORS
330
236
102
}
330
236
100
AcDbXrecord
 10
0.0
 20
0.0
 30
0.0
  0
XRECORD
  5
243
102
{ACAD_REACTORS
330
236
102
}
330
236
100
AcDbXrecord
340
0
  0
XRECORD
  5
244
102
{ACAD_REACTORS
330
236
102
}
330
236
100
AcDbXrecord
 70
     0
  0
XRECORD
  5
23A
102
{ACAD_REACTORS
330
236
102
}
330
236
100
AcDbXrecord
  1

  0
XRECORD
  5
237
102
{ACAD_REACTORS
330
236
102
}
330
236
100
AcDbXrecord
 90
        1
  0
XRECORD
  5
238
102
{ACAD_REACTORS
330
236
102
}
330
236
100
AcDbXrecord
 90
       70
  0
XRECORD
  5
24E
102
{ACAD_REACTORS
330
236
102
}
330
236
100
AcDbXrecord
340
0
  0
XRECORD
  5
254
102
{ACAD_REACTORS
330
236
102
}
330
236
100
AcDbXrecord
 10
0.0
 20
0.0
 30
0.0
  0
XRECORD
  5
250
102
{ACAD_REACTORS
330
236
102
}
330
236
100
AcDbXrecord
 10
0.0
 20
0.0
 30
0.0
  0
XRECORD
  5
253
102
{ACAD_REACTORS
330
236
102
}
330
236
100
AcDbXrecord
 10
0.0
 20
0.0
 30
0.0
  0
XRECORD
  5
251
102
{ACAD_REACTORS
330
236
102
}
330
236
100
AcDbXrecord
 10
0.0
 20
0.0
 30
0.0
  0
XRECORD
  5
252
102
{ACAD_REACTORS
330
236
102
}
330
236
100
AcDbXrecord
 10
0.0
 20
0.0
 30
0.0
  0
XRECORD
  5
24F
102
{ACAD_REACTORS
330
236
102
}
330
236
100
AcDbXrecord
 10
0.0
 20
0.0
 30
0.0
  0
XRECORD
  5
24C
102
{ACAD_REACTORS
330
236
102
}
330
236
100
AcDbXrecord
340
0
  0
XRECORD
  5
24D
102
{ACAD_REACTORS
330
236
102
}
330
236
100
AcDbXrecord
 70
     0
  0
XRECORD
  5
241
102
{ACAD_REACTORS
330
236
102
}
330
236
100
AcDbXrecord
  1
{FAEB1C32-E019-11D5-929B-00C0DF256EC4}
  0
DICTIONARYVAR
  5
25F
102
{ACAD_REACTORS
330
256
102
}
330
256
100
DictionaryVariables
280
     0
  1
1:1
  0
DICTIONARYVAR
  5
25B
102
{ACAD_REACTORS
330
256
102
}
330
256
100
DictionaryVariables
280
     0
  1
2
  0
DICTIONARYVAR
  5
25C
102
{ACAD_REACTORS
330
256
102
}
330
256
100
DictionaryVariables
280
     0
  1
1
  0
DICTIONARYVAR
  5
260
102
{ACAD_REACTORS
330
256
102
}
330
256
100
DictionaryVariables
280
     0
  1
1
  0
DICTIONARY
  5
263
330
45
100
AcDbDictionary
280
     1
  3
ACAD_XREC_ROUNDTRIP
360
264
  0
DICTIONARY
  5
261
330
44
100
AcDbDictionary
280
     1
  3
ACAD_XREC_ROUNDTRIP
360
262
  0
DICTIONARY
  5
265
330
46
100
AcDbDictionary
280
     1
  3
ACAD_XREC_ROUNDTRIP
360
266
  0
XRECORD
  5
264
102
{ACAD_REACTORS
330
263
102
}
330
263
100
AcDbXrecord
102
MATERIAL
148
0.0
149
0.0
149
0.0
 93
        0
 94
      127
282
     0
 72
     1
 77
     1
171
     1
175
     1
179
     1
273
     0
  0
XRECORD
  5
262
102
{ACAD_REACTORS
330
261
102
}
330
261
100
AcDbXrecord
102
MATERIAL
148
0.0
149
0.0
149
0.0
 93
        0
 94
      127
282
     0
 72
     1
 77
     1
171
     1
175
     1
179
     1
273
     0
  0
XRECORD
  5
266
102
{ACAD_REACTORS
330
265
102
}
330
265
100
AcDbXrecord
102
MATERIAL
148
0.0
149
0.0
149
0.0
 93
        0
 94
      127
282
     0
 72
     1
 77
     1
171
     1
175
     1
179
     1
273
     0
  0
ENDSEC
  0
EOF
